<svg width="16" height="25" viewBox="0 0 16 25" fill="none" xmlns="http://www.w3.org/2000/svg">
<g clip-path="url(#clip0_348_409)">
<path d="M15.4481 1.58832V1.58086C15.4473 1.57216 15.4465 1.56056 15.4448 1.54771C15.4436 1.53818 15.4415 1.52824 15.4386 1.51871C15.4369 1.51125 15.4349 1.50379 15.4328 1.49633C15.427 1.47727 15.4203 1.45945 15.4112 1.4408C15.4079 1.43376 15.4046 1.42671 15.4005 1.41925C15.3744 1.37326 15.3383 1.33223 15.2956 1.30116L15.2902 1.29701L15.2877 1.29494L15.2853 1.29328C15.2774 1.2879 15.2687 1.28251 15.2596 1.27795C15.2434 1.26883 15.2272 1.26137 15.2098 1.25433C15.2032 1.25184 15.1978 1.24977 15.1912 1.2477C15.1701 1.24107 15.1493 1.2361 15.1282 1.2332C15.1212 1.23195 15.1137 1.23113 15.1054 1.2303C15.0942 1.22947 15.0843 1.22905 15.0743 1.22905C15.0632 1.22905 15.052 1.22947 15.0412 1.23071H15.0006L14.9857 1.23817C14.7963 1.26386 14.5995 1.27712 14.4001 1.27712C13.7922 1.27712 13.1433 1.15322 12.574 0.927798C12.0477 0.719779 11.6126 0.433028 11.381 0.140889C11.3101 0.0513832 11.2032 0 11.0884 0C11.0387 0 10.9898 0.00994514 10.9438 0.0290066L0.228324 4.54949C0.220451 4.5528 0.213406 4.55612 0.207605 4.55943C0.202218 4.56233 0.196416 4.56523 0.189372 4.56938C0.182742 4.57269 0.17404 4.57766 0.16368 4.58471C0.158708 4.58802 0.154564 4.59134 0.150835 4.59424L0.147934 4.59631L0.144204 4.5988L0.140889 4.6017C0.135502 4.60626 0.129701 4.61081 0.124729 4.61579C0.118513 4.62117 0.112712 4.62656 0.10691 4.63236C0.102766 4.63651 0.0982082 4.64189 0.0932357 4.64769C0.0882631 4.6535 0.0832905 4.6593 0.0783179 4.66593C0.0725166 4.67297 0.0675441 4.68002 0.0625715 4.68706C0.0580133 4.69369 0.0546983 4.69991 0.0513832 4.70529C0.0472394 4.71234 0.04351 4.71938 0.0397805 4.72725C0.0364655 4.73347 0.0323217 4.74176 0.0281779 4.7517C0.026106 4.75626 0.0236197 4.76331 0.0211334 4.77159C0.0186471 4.77864 0.0165752 4.7861 0.0140889 4.79438C0.0116027 4.80309 0.00953076 4.81096 0.00787323 4.81883C0.00663009 4.82546 0.00497257 4.83375 0.00414381 4.84287C0.00331505 4.84991 0.00248628 4.85737 0.00165752 4.86524C0.000828761 4.87477 0 4.88431 0 4.89301V23.3541C0 23.4378 0.0285923 23.5202 0.0808042 23.5861C0.495185 24.1078 1.20875 24.5297 2.08972 24.7742C2.62179 24.9217 3.18659 24.9996 3.72321 24.9996C3.9275 24.9996 4.12475 24.9884 4.3108 24.9656L4.31702 24.9826L4.44423 24.9457C4.45293 24.9436 4.46039 24.9412 4.46578 24.9395C4.472 24.9374 4.47821 24.9358 4.48443 24.9337H4.48526L4.49354 24.9308L4.50142 24.9275L4.61744 24.8885L4.61496 24.8794L15.0076 20.4953C15.2753 20.3826 15.4481 20.1219 15.4481 19.8314V1.58832ZM13.3592 1.92107L4.26108 5.75906C4.09864 5.78061 3.92294 5.79138 3.73813 5.79138C2.58366 5.79138 1.60075 5.42383 1.04217 5.01566L10.9894 0.819645C11.5223 1.34798 12.3887 1.74661 13.3592 1.92148V1.92107ZM3.98717 6.5323V24.2462C3.90595 24.2508 3.82266 24.2533 3.73771 24.2533C3.17457 24.2533 2.56875 24.1538 2.03171 23.9728C1.47312 23.7846 1.03015 23.524 0.7463 23.2169V5.72053C1.5158 6.23063 2.62096 6.53893 3.7199 6.53893C3.80982 6.53893 3.89932 6.53686 3.98717 6.5323ZM14.7026 2.1639V19.8157L4.73306 24.0212V6.36945L14.7026 2.1639Z" fill="#1D1B70"/>
</g>
<defs>
<clipPath id="clip0_348_409">
<rect width="15.4485" height="25" fill="white"/>
</clipPath>
</defs>
</svg>
