<svg width="25" height="21" viewBox="0 0 25 21" fill="none" xmlns="http://www.w3.org/2000/svg">
<path d="M12.5 6.15922C10.2378 3.40854 7.39983 5.11865 3.81965 5.18487C3.46732 5.19117 3.18481 5.47076 3.18481 5.81446V17.4794C3.18481 17.6528 3.32768 17.7936 3.50492 17.7957C7.23334 17.8304 10.1712 15.9385 12.4989 18.768" stroke="#1D1B70" stroke-width="0.8" stroke-linecap="round" stroke-linejoin="round"/>
<path d="M20.6261 5.16174C20.8097 5.17331 20.9945 5.18171 21.1825 5.18487C21.5337 5.19117 21.8141 5.47181 21.8141 5.81446V17.4794C21.8141 17.6528 21.6712 17.7936 21.494 17.7957C17.7656 17.8304 14.8277 15.9385 12.5 18.768" stroke="#1D1B70" stroke-width="0.8" stroke-linecap="round" stroke-linejoin="round"/>
<path d="M17.6357 2.79681C17.9504 2.76528 18.2834 2.74321 18.6379 2.73059C19.002 2.71798 19.3039 3.00493 19.3039 3.36124V14.7087C19.3039 15.0493 19.0278 15.3267 18.6798 15.3383C12.499 15.5422 12.499 18.769 12.499 18.769" stroke="#1D1B70" stroke-width="0.8" stroke-linecap="round" stroke-linejoin="round"/>
<path d="M12.5 6.15922C12.5 6.15922 12.5161 1.44828 16.0319 1.00262C16.2252 0.978446 16.3981 1.12455 16.3981 1.31584V13.0165C16.3981 13.3223 16.1726 13.5841 15.8654 13.6366C12.5161 14.2084 12.5 18.769 12.5 18.769" stroke="#1D1B70" stroke-width="0.8" stroke-linecap="round" stroke-linejoin="round"/>
<path d="M23.0333 7.13568C23.3888 7.13568 23.6778 7.41842 23.6778 7.76633V18.6187C23.6778 18.9666 23.3888 19.2494 23.0333 19.2494H14.6054C14.31 19.2494 14.0694 19.4838 14.0694 19.7739C14.0694 20.0881 13.8094 20.3425 13.4882 20.3425H11.5129C11.1917 20.3425 10.9317 20.0881 10.9317 19.7739C10.9317 19.4848 10.6922 19.2494 10.3957 19.2494H1.96676C1.61122 19.2494 1.32227 18.9666 1.32227 18.6187V7.76633C1.32227 7.41842 1.61122 7.13568 1.96676 7.13568" stroke="#1D1B70" stroke-width="0.8" stroke-linecap="round" stroke-linejoin="round"/>
<path d="M12.5 18.768V6.15923" stroke="#1D1B70" stroke-width="0.8" stroke-linecap="round" stroke-linejoin="round"/>
</svg>
