<svg width="28" height="23" viewBox="0 0 28 23" fill="none" xmlns="http://www.w3.org/2000/svg">
<path d="M12.768 14.9924H12.6719C12.583 15.0486 12.427 15.2028 12.2002 15.4532C11.9734 15.7035 11.8156 15.8976 11.7285 16.0319V16.128C12.0224 16.3584 12.3218 16.6287 12.6247 16.939H12.7209C13.3177 16.5072 13.6171 16.1643 13.6171 15.9103C13.6171 15.7616 13.5427 15.6146 13.3976 15.4695C13.2506 15.3244 13.042 15.1647 12.768 14.9924Z" fill="#1D1B70"/>
<path d="M16.6378 12.2003L16.4092 12.1423C16.1443 12.8081 15.9647 13.3578 15.8704 13.7932C15.776 14.2286 15.7289 14.6821 15.7289 15.152L15.7397 15.8904C15.7397 16.7049 15.6563 17.3327 15.4876 17.7771C15.3189 18.2216 15.0758 18.6116 14.7583 18.9473C14.4408 19.2829 14.0453 19.5568 13.5718 19.7673C13.1001 19.9777 12.5486 20.0829 11.9191 20.0829C11.1227 20.0829 10.5004 19.8816 10.0505 19.4788C9.60057 19.0761 9.37742 18.4611 9.37742 17.6374C9.37742 16.9335 9.58242 16.0881 9.99243 15.1012L9.68402 14.9851C9.34114 15.7035 9.08352 16.402 8.91118 17.0805C8.73883 17.759 8.65356 18.481 8.65356 19.2448C8.65356 20.0793 8.90211 20.7524 9.39556 21.264C9.89083 21.7756 10.5566 22.0314 11.3912 22.0314C12.4343 22.0314 13.3595 21.6486 14.1668 20.8848C14.9742 20.121 15.6055 19.0126 16.0608 17.5631C16.3693 16.6142 16.5343 15.3189 16.5597 13.6735C16.567 12.9097 16.5924 12.4199 16.6341 12.204L16.6378 12.2003Z" fill="#1D1B70"/>
<path d="M24.4786 14.6731C24.3262 14.5769 24.25 14.4499 24.25 14.2903C24.25 14.1306 24.3135 13.8168 24.4405 13.3251C24.6001 12.7337 24.7035 12.1768 24.7543 11.6543C24.7761 11.491 24.7943 11.306 24.8106 11.0991C24.8269 10.8923 24.8505 10.4442 24.8831 9.75302C24.9085 9.09084 24.9521 8.61734 25.0156 8.3307L24.787 8.24544C24.2881 9.34664 24.0305 10.417 24.0123 11.462L23.9543 12.8952C23.9361 13.3614 23.9126 13.6825 23.8799 13.8585C23.8491 14.0327 23.7838 14.254 23.6894 14.5189C23.6259 14.7112 23.5842 14.8599 23.5588 14.9724C23.3901 15.0667 23.2105 15.2391 23.02 15.4949C22.6953 15.9484 22.4014 16.246 22.1383 16.3893C21.8752 16.5326 21.5777 16.6034 21.2421 16.6034C21.2421 16.6034 21.2421 16.6034 21.2385 16.6034C21.2348 16.6034 21.2385 16.6034 21.2367 16.6034C20.8611 16.6034 20.5709 16.4691 20.364 16.2024C20.1572 15.9357 20.0538 15.5675 20.0538 15.0958C20.0538 14.9724 20.0647 14.8454 20.0847 14.713L20.2062 13.9746L19.8833 13.9274C19.6601 14.8182 19.4461 15.504 19.2392 15.9811C19.0324 16.4582 18.6569 16.9009 18.1108 17.3073C17.5666 17.7136 16.9389 18.1073 16.2332 18.4847L16.2549 18.7241C16.9733 18.6389 17.4813 18.5608 17.7788 18.4883C18.0764 18.4157 18.2941 18.3323 18.4319 18.2361C18.8601 17.7662 19.1703 17.2837 19.3608 16.792H19.3771C19.3771 17.2383 19.495 17.603 19.7327 17.8896C19.9704 18.1762 20.2951 18.3196 20.7087 18.3196C20.774 18.3196 20.8393 18.3123 20.9047 18.3014C20.9083 18.3014 20.9101 18.3014 20.9137 18.2996C21.3382 18.2216 21.7392 17.8987 22.1147 17.3272C22.4431 16.8428 22.6717 16.5435 22.7987 16.4274C22.9257 16.3113 23.0635 16.255 23.2123 16.255C23.2867 16.255 23.3665 16.2659 23.4536 16.2895C23.5407 16.3131 23.6604 16.3657 23.811 16.4491C23.9615 16.5326 24.0867 16.5743 24.1829 16.5743C24.3951 16.5671 24.6001 16.4147 24.7961 16.119C24.992 15.8214 25.0972 15.5566 25.1117 15.3225C25.1117 15.1883 25.0628 15.0758 24.963 14.9851C24.8632 14.8944 24.7035 14.7892 24.4804 14.6694L24.4786 14.6731Z" fill="#1D1B70"/>
<path d="M27.7732 10.8179C27.5192 11.384 27.3306 11.8448 27.2072 12.1985C27.0838 12.5523 27.004 12.8607 26.9623 13.1237C26.9224 13.3868 26.8879 13.7968 26.8643 14.3519L26.7591 17.0533C26.7029 18.1037 26.6394 18.7894 26.5686 19.1069L26.8081 19.165C27.2616 18.1 27.512 17.1004 27.561 16.1661L27.7351 13.0984C27.7914 11.9264 27.8803 11.1953 28 10.9014L27.7714 10.8161L27.7732 10.8179Z" fill="#1D1B70"/>
<path d="M4.06731 11.872C4.66417 11.4402 4.96351 11.0973 4.96351 10.8433C4.96351 10.6946 4.88913 10.5476 4.74399 10.4025C4.59705 10.2573 4.38842 10.0977 4.11447 9.92535H4.01832C3.92943 9.98159 3.77341 10.1358 3.54664 10.3862C3.31987 10.6365 3.16203 10.8306 3.07495 10.9649V11.061C3.36885 11.2914 3.66819 11.5617 3.97115 11.8738H4.06731V11.872Z" fill="#1D1B70"/>
<path d="M7.2168 8.72619C7.12246 9.16159 7.07529 9.61514 7.07529 10.085L7.08617 10.8234C7.08617 11.6379 7.00272 12.2657 6.834 12.7101C6.66529 13.1546 6.42219 13.5446 6.10471 13.8803C5.78722 14.2159 5.39173 14.4898 4.91823 14.7003C4.44655 14.9107 3.89504 15.0159 3.26552 15.0159C2.46909 15.0159 1.84683 14.8146 1.39692 14.4118C0.947 14.0091 0.723857 13.3941 0.723857 12.5704C0.723857 11.8665 0.928859 11.0211 1.33886 10.0342L1.03045 9.91811C0.687573 10.6365 0.42996 11.335 0.257613 12.0135C0.0852663 12.692 0 13.414 0 14.1778C0 15.0123 0.248542 15.6854 0.741998 16.197C1.23727 16.7086 1.90307 16.9644 2.73759 16.9644C3.78075 16.9644 4.70598 16.5816 5.51328 15.8178C6.32059 15.054 6.95193 13.9456 7.40728 12.4961C7.71569 11.5472 7.88078 10.2519 7.90618 8.60646C7.91344 7.84269 7.93884 7.35286 7.98056 7.13697L7.75198 7.07892C7.48711 7.74472 7.3075 8.29442 7.21317 8.72982L7.2168 8.72619Z" fill="#1D1B70"/>
<path d="M14.3029 2.98976H14.399C14.7492 2.70312 14.9778 2.49086 15.0866 2.35117C15.1955 2.21148 15.2481 2.09356 15.2481 1.99741C15.2481 1.87041 15.1701 1.73979 15.014 1.60554C14.858 1.47129 14.6694 1.32797 14.4462 1.17558H14.3609C14.3083 1.20098 14.1795 1.31527 13.9763 1.51846C13.7732 1.72165 13.599 1.92665 13.4539 2.13165V2.21692C13.5028 2.25502 13.6371 2.37294 13.8566 2.56706C14.0761 2.76117 14.2249 2.90268 14.3029 2.99157V2.98976Z" fill="#1D1B70"/>
<path d="M13.6444 4.87832C14.0979 4.55358 14.3791 4.27601 14.488 4.05105C14.7039 4.22521 14.9343 4.43566 15.1774 4.68239H15.2735C15.8541 4.2615 16.1443 3.9168 16.1443 3.64831C16.1443 3.49591 16.0718 3.35078 15.9303 3.21109C15.7869 3.0714 15.5747 2.91175 15.2953 2.73033H15.1991C15.1284 2.77569 15.0068 2.89361 14.8327 3.08047C14.6585 3.26733 14.5243 3.41972 14.4299 3.53764C14.3301 3.38525 14.0852 3.18388 13.6916 2.93352H13.5954C13.5101 2.98613 13.3541 3.14034 13.1255 3.39432C12.8969 3.64831 12.7373 3.84242 12.6448 3.97304V4.06919C12.9314 4.29959 13.2326 4.56991 13.5464 4.88195H13.6426L13.6444 4.87832Z" fill="#1D1B70"/>
<path d="M10.6619 13.258C10.7272 13.258 10.7925 13.2526 10.856 13.2399C10.856 13.2399 10.856 13.2399 10.8579 13.2399C11.286 13.1637 11.6888 12.8407 12.0679 12.2657C12.3963 11.7813 12.6249 11.4819 12.7519 11.3658C12.8789 11.2497 13.0167 11.1935 13.1655 11.1935C13.2399 11.1935 13.3197 11.2044 13.4068 11.2279C13.4939 11.2515 13.6136 11.3041 13.7642 11.3876C13.9166 11.471 14.0399 11.5128 14.1361 11.5128C14.3483 11.5055 14.5533 11.3531 14.7493 11.0556C14.9452 10.7581 15.0504 10.4932 15.0649 10.2592C15.0649 10.1431 15.0287 10.0505 14.9597 9.98342C14.889 9.91629 14.8091 9.86187 14.7202 9.81833L14.4227 9.65324C14.2594 9.56434 14.1778 9.4573 14.1778 9.33031C14.1778 9.21783 14.2105 9.08903 14.2794 8.94752C14.4917 8.5484 14.8744 8.34521 15.426 8.33796C15.5747 8.33796 15.718 8.39783 15.8559 8.51756C16.0047 8.65181 16.1861 8.71893 16.402 8.71893C16.4038 8.71893 16.4056 8.71893 16.4074 8.71893C16.4074 8.71893 16.4111 8.71893 16.4129 8.71893C16.6505 8.71893 16.8809 8.59557 17.1059 8.35066C17.3308 8.10574 17.5377 7.73384 17.7263 7.23857C17.915 6.7433 18.0511 6.27161 18.1327 5.82169C18.2143 5.37178 18.2851 4.77854 18.345 4.03836L18.4556 1.50758C18.481 0.845407 18.5246 0.371906 18.5881 0.0852663L18.3595 0C17.8642 1.09395 17.6066 2.1625 17.5848 3.20565C17.5213 5.07425 17.4651 6.19179 17.4143 6.56006C17.3181 7.2295 17.1041 7.5633 16.7721 7.5633C16.6904 7.5633 16.6179 7.54516 16.5544 7.51069C16.4909 7.47622 16.4165 7.42543 16.3312 7.36193C16.1716 7.24219 15.992 7.18051 15.7906 7.18051C15.5221 7.18051 15.2482 7.28574 14.9688 7.49618C14.6894 7.70662 14.4409 7.97331 14.2232 8.29805C14.0055 8.62097 13.8404 8.91487 13.7279 9.17611C13.5809 9.50629 13.5047 9.7512 13.5011 9.91448C13.3342 10.0106 13.1601 10.1793 12.975 10.4297C12.6503 10.8832 12.3564 11.1808 12.0933 11.3241C11.8321 11.4674 11.5327 11.5382 11.1971 11.5382C10.8542 11.5382 10.5875 11.4438 10.3952 11.257C10.2048 11.0701 10.0651 10.8179 9.97798 10.5041C9.8909 10.1902 9.84736 9.67138 9.84736 8.94934C9.84736 6.87936 9.93081 5.34819 10.0959 4.35402L9.87276 4.29053C9.69679 4.71505 9.56435 5.10872 9.47727 5.47337C9.39019 5.83802 9.30674 6.54011 9.22691 7.57963C9.14709 8.61915 9.10718 9.70403 9.10718 10.8325C9.10718 11.6779 9.2378 12.2929 9.50085 12.6793C9.7621 13.0657 10.1485 13.258 10.6583 13.258H10.6619Z" fill="#1D1B70"/>
<path d="M20.4766 9.16159L20.6508 6.09382C20.707 4.92186 20.7959 4.19075 20.9156 3.89685L20.687 3.81158C20.4331 4.37761 20.2444 4.83841 20.121 5.19217C19.9976 5.54594 19.9178 5.85435 19.8761 6.1174C19.8362 6.38046 19.8017 6.79046 19.7781 7.3456L19.6729 10.0469C19.6167 11.0973 19.5532 11.7813 19.4824 12.1006L19.7219 12.1586C20.1754 11.0937 20.4258 10.0941 20.4748 9.15978L20.4766 9.16159Z" fill="#1D1B70"/>
</svg>
