<svg width="21" height="22" viewBox="0 0 21 22" fill="none" xmlns="http://www.w3.org/2000/svg">
<path d="M4.05908 13.6485V7.3686C4.05908 3.85086 6.94251 1 10.4997 1C14.0569 1 16.941 3.8516 16.941 7.3686V13.6485C16.941 16.6082 14.8994 18.6588 12.1328 19.3733" stroke="#1D1B70" stroke-width="0.8" stroke-linecap="round" stroke-linejoin="round"/>
<path d="M4.05902 13.6485H3.97914C2.08976 13.6485 1 12.1344 1 10.2664C1 8.39837 2.08976 6.88427 3.97914 6.88427H4.05902" stroke="#1D1B70" stroke-width="0.8" stroke-linecap="round" stroke-linejoin="round"/>
<path d="M16.9409 13.6485H17.0208C18.9102 13.6485 19.9999 12.1344 19.9999 10.2664C19.9999 8.39837 18.9102 6.88427 17.0208 6.88427H16.9409" stroke="#1D1B70" stroke-width="0.8" stroke-linecap="round" stroke-linejoin="round"/>
<path d="M10.4995 21.1564C11.3802 21.1564 12.0942 20.4505 12.0942 19.5797C12.0942 18.709 11.3802 18.0031 10.4995 18.0031C9.61876 18.0031 8.90479 18.709 8.90479 19.5797C8.90479 20.4505 9.61876 21.1564 10.4995 21.1564Z" stroke="#1D1B70" stroke-width="0.8" stroke-linecap="round" stroke-linejoin="round"/>
<path d="M16.941 6.88352C12.888 6.66073 9.92466 5.28448 8.22219 3.38441C7.39318 4.88137 5.66509 6.12797 4.05908 6.88352" stroke="#1D1B70" stroke-width="0.8" stroke-linecap="round" stroke-linejoin="round"/>
</svg>
