<svg width="51" height="41" viewBox="0 0 51 41" fill="none" xmlns="http://www.w3.org/2000/svg">
<path d="M24.0397 28.3218C23.952 28.3218 23.8624 28.3064 23.7747 28.2737C20.1445 26.9105 16.7754 25.0152 13.7491 22.6361C10.8459 24.9546 7.45509 26.8489 3.66235 28.2737C3.28111 28.4171 2.85356 28.2314 2.70776 27.8591L1.15028 23.906C1.08033 23.727 1.08526 23.5289 1.16506 23.3538C1.24485 23.1787 1.39163 23.0421 1.57487 22.9737C4.56177 21.852 7.22162 20.4195 9.49234 18.7118C7.89742 16.9811 6.81476 15.4409 6.16753 14.4134C6.06508 14.2508 6.03257 14.0545 6.07789 13.8679C6.1232 13.6822 6.2424 13.5206 6.40987 13.4205L10.1041 11.2011C10.4518 10.9923 10.907 11.0981 11.1208 11.4377C11.5227 12.0746 12.3551 13.2916 13.6762 14.7511C14.3057 13.9958 14.8889 13.2021 15.4149 12.3834C16.2799 11.0375 16.8769 9.78685 17.2768 8.7969H1.50886C1.10102 8.7969 0.77002 8.47364 0.77002 8.07535V3.83942C0.77002 3.44113 1.10102 3.11788 1.50886 3.11788H10.97V1.31114C10.97 0.91285 11.301 0.5896 11.7089 0.5896H16.0464C16.4542 0.5896 16.7852 0.91285 16.7852 1.31114V3.11788H26.2464C26.6542 3.11788 26.9852 3.44113 26.9852 3.83942V8.07535C26.9852 8.47364 26.6542 8.7969 26.2464 8.7969H23.4211C22.9433 10.3978 22.0645 12.6692 20.4775 15.1888C19.7308 16.374 18.8747 17.5275 17.928 18.6262C20.3327 20.4368 22.9984 21.8982 25.8642 22.9747C26.2454 23.1181 26.4346 23.5356 26.2888 23.9069C26.142 24.2793 25.7154 24.4649 25.3342 24.3216C22.0842 23.1007 19.0776 21.4066 16.4 19.2852C16.2434 19.1611 16.1459 18.9803 16.1291 18.784C16.1124 18.5877 16.1784 18.3934 16.3124 18.2462C17.4078 17.0398 18.3861 15.7564 19.2205 14.4326C20.9001 11.7668 21.7385 9.40491 22.1463 7.8916C22.232 7.57508 22.5256 7.35381 22.8605 7.35381H25.5085V4.56096H16.0474C15.6395 4.56096 15.3085 4.23771 15.3085 3.83942V2.03268H12.4487V3.83942C12.4487 4.23771 12.1177 4.56096 11.7099 4.56096H2.24771V7.35381H18.3329C18.5703 7.35381 18.7939 7.46541 18.9328 7.65397C19.0717 7.84254 19.1091 8.08401 19.0343 8.30432C18.6442 9.44147 17.9181 11.2059 16.668 13.1512C15.9548 14.2614 15.143 15.3273 14.2554 16.3211C14.1185 16.4751 13.9205 16.5645 13.7116 16.5684C13.4988 16.5742 13.3018 16.4885 13.159 16.3394C11.7985 14.9185 10.8449 13.6534 10.2637 12.8019L7.82649 14.2671C8.53972 15.3254 9.61548 16.7473 11.1148 18.3001C11.2557 18.4453 11.3276 18.6416 11.3148 18.8417C11.302 19.0418 11.2045 19.2265 11.0459 19.3535C8.6934 21.2334 5.92125 22.8131 2.79544 24.0561L3.82194 26.6623C7.38712 25.248 10.5632 23.3961 13.2693 21.1507C13.5432 20.9236 13.9441 20.9217 14.2209 21.1458C17.2433 23.6029 20.6371 25.5482 24.3077 26.9268C24.6889 27.0702 24.8781 27.4877 24.7323 27.8591C24.619 28.1458 24.3392 28.3218 24.0427 28.3218H24.0397Z" fill="#1D1B70"/>
<path d="M49.2875 40.4639H43.2418C42.9394 40.4639 42.6675 40.284 42.5552 40.0089L40.0874 33.9498H30.9001L28.4324 40.0089C28.3211 40.284 28.0482 40.4639 27.7458 40.4639H21.8931C21.6468 40.4639 21.4163 40.3437 21.2784 40.1436C21.1415 39.9434 21.1159 39.6895 21.2104 39.4663L32.4635 12.9376C32.5778 12.6682 32.8477 12.4922 33.1462 12.4922H37.8413C38.1389 12.4922 38.4068 12.6663 38.5221 12.9337L49.9683 39.4624C50.0648 39.6856 50.0402 39.9406 49.9032 40.1416C49.7663 40.3427 49.5348 40.4639 49.2875 40.4639ZM43.7423 39.0208H48.1743L37.3508 13.9352H33.6398L22.9984 39.0208H27.2443L29.7121 32.9618C29.8234 32.6867 30.0963 32.5068 30.3987 32.5068H40.5889C40.8913 32.5068 41.1632 32.6867 41.2755 32.9618L43.7423 39.0208ZM38.5723 29.001H32.4143C32.169 29.001 31.9404 28.8827 31.8025 28.6845C31.6646 28.4863 31.637 28.2352 31.7276 28.013L34.8072 20.4532C34.9185 20.179 35.1914 19.9981 35.4938 19.9981C35.7962 19.9981 36.0681 20.178 36.1804 20.4532L39.2589 28.013C39.3496 28.2352 39.321 28.4863 39.1841 28.6845C39.0462 28.8827 38.8176 29.001 38.5723 29.001ZM33.5038 27.5579H37.4837L35.4938 22.6717L33.5038 27.5579Z" fill="#1D1B70"/>
</svg>
