<svg width="24" height="20" viewBox="0 0 24 20" fill="none" xmlns="http://www.w3.org/2000/svg">
<path d="M11.338 13.5124C11.2953 13.5124 11.2516 13.5049 11.2089 13.489C9.44013 12.8247 7.79854 11.9013 6.32398 10.742C4.90943 11.8717 3.25727 12.7947 1.40928 13.489C1.22352 13.5588 1.0152 13.4683 0.944157 13.2869L0.185279 11.3608C0.1512 11.2736 0.1536 11.177 0.192479 11.0917C0.231359 11.0064 0.302879 10.9398 0.392159 10.9066C1.84751 10.36 3.14351 9.66202 4.24991 8.82997C3.47279 7.98668 2.94527 7.2362 2.62991 6.73557C2.57999 6.65635 2.56415 6.56072 2.58623 6.46978C2.60831 6.37931 2.66639 6.30056 2.74799 6.25181L4.54799 5.17039C4.71743 5.06867 4.93919 5.12023 5.04335 5.2857C5.23918 5.59602 5.64478 6.189 6.28846 6.9001C6.59518 6.53213 6.87934 6.1454 7.13566 5.74649C7.5571 5.0907 7.84798 4.48132 8.04286 3.99897H0.359999C0.16128 3.99897 0 3.84146 0 3.6474V1.58346C0 1.3894 0.16128 1.23189 0.359999 1.23189H4.96991V0.351568C4.96991 0.157502 5.13119 0 5.3299 0H7.44334C7.64206 0 7.80334 0.157502 7.80334 0.351568V1.23189H12.4132C12.612 1.23189 12.7732 1.3894 12.7732 1.58346V3.6474C12.7732 3.84146 12.612 3.99897 12.4132 3.99897H11.0366C10.8038 4.77898 10.3757 5.88571 9.60237 7.11339C9.23853 7.6909 8.82141 8.25293 8.36014 8.78825C9.53181 9.67046 10.8307 10.3825 12.227 10.907C12.4128 10.9769 12.5049 11.1803 12.4339 11.3613C12.3624 11.5427 12.1545 11.6331 11.9688 11.5633C10.3853 10.9684 8.92029 10.143 7.61566 9.10935C7.53934 9.04888 7.49182 8.96076 7.48366 8.86513C7.4755 8.7695 7.50766 8.67482 7.57294 8.6031C8.1067 8.01528 8.58333 7.38995 8.98989 6.74494C9.80829 5.44602 10.2168 4.29522 10.4155 3.55787C10.4573 3.40364 10.6003 3.29583 10.7635 3.29583H12.0537V1.93503H7.44382C7.2451 1.93503 7.08382 1.77753 7.08382 1.58346V0.703135H5.69038V1.58346C5.69038 1.77753 5.5291 1.93503 5.33038 1.93503H0.719998V3.29583H8.55742C8.67309 3.29583 8.78205 3.35021 8.84973 3.44208C8.91741 3.53396 8.93565 3.65162 8.89917 3.75896C8.7091 4.31303 8.35534 5.17273 7.74622 6.12056C7.3987 6.66151 7.00318 7.18089 6.5707 7.66511C6.50398 7.74012 6.4075 7.78371 6.30574 7.78558C6.20206 7.7884 6.10606 7.74668 6.03646 7.67402C5.37358 6.98167 4.90895 6.36525 4.62575 5.9504L3.43823 6.66432C3.78575 7.17995 4.30991 7.87277 5.04047 8.62935C5.10911 8.70013 5.14415 8.79576 5.13791 8.89326C5.13166 8.99076 5.08415 9.08076 5.00687 9.14264C3.86063 10.0586 2.50991 10.8283 0.986877 11.4339L1.48704 12.7038C3.22415 12.0147 4.77167 11.1124 6.09022 10.0183C6.22366 9.90765 6.41902 9.90671 6.5539 10.0159C8.02654 11.2131 9.68013 12.161 11.4686 12.8327C11.6544 12.9025 11.7465 13.106 11.6755 13.2869C11.6203 13.4266 11.484 13.5124 11.3395 13.5124H11.338Z" fill="#1D1B70"/>
<path d="M23.6399 19.4286H20.6942C20.5468 19.4286 20.4143 19.3409 20.3596 19.2068L19.1572 16.2546H14.6808L13.4784 19.2068C13.4241 19.3409 13.2912 19.4286 13.1438 19.4286H10.2921C10.1721 19.4286 10.0598 19.37 9.99261 19.2725C9.92589 19.175 9.91341 19.0512 9.95949 18.9425L15.4425 6.0165C15.4982 5.88524 15.6297 5.79946 15.7752 5.79946H18.0628C18.2078 5.79946 18.3383 5.88431 18.3945 6.01462L23.9716 18.9406C24.0187 19.0493 24.0067 19.1736 23.9399 19.2715C23.8732 19.3695 23.7604 19.4286 23.6399 19.4286ZM20.938 18.7254H23.0975L17.8238 6.5026H16.0156L10.8307 18.7254H12.8995L14.1019 15.7732C14.1561 15.6391 14.2891 15.5515 14.4364 15.5515H19.4015C19.5489 15.5515 19.6814 15.6391 19.7361 15.7732L20.938 18.7254ZM18.419 13.8433H15.4185C15.299 13.8433 15.1876 13.7857 15.1204 13.6891C15.0532 13.5925 15.0398 13.4702 15.084 13.3619L16.5844 9.67843C16.6387 9.54483 16.7716 9.4567 16.919 9.4567C17.0664 9.4567 17.1988 9.54436 17.2536 9.67843L18.7535 13.3619C18.7977 13.4702 18.7838 13.5925 18.7171 13.6891C18.6499 13.7857 18.5385 13.8433 18.419 13.8433ZM15.9494 13.1402H17.8886L16.919 10.7594L15.9494 13.1402Z" fill="#1D1B70"/>
</svg>
