<svg width="117" height="84" viewBox="0 0 117 84" fill="none" xmlns="http://www.w3.org/2000/svg">
<g clip-path="url(#clip0_30_18408)">
<path d="M106.677 2.7508C107.349 3.11981 108.156 3.13658 108.543 2.7508C108.963 2.36502 109.199 2.0631 108.93 1.39217C108.61 1.66054 108.274 1.59345 107.938 1.42572C107.686 1.30831 107.518 1.3754 107.417 1.64377C107.366 1.79473 107.316 1.94569 107.232 2.16374C107.602 2.2476 107.938 2.3147 108.257 2.38179C108.257 2.41534 108.257 2.46565 108.257 2.4992C107.938 2.65016 107.585 2.66693 107.282 2.4992C106.963 2.3147 106.811 2.41534 106.677 2.73403M80.9702 3.17013C80.6676 3.17013 80.3481 3.17013 80.0455 3.17013C78.8518 3.13658 78.2129 2.48243 78.1793 1.30831C78.1793 0.972843 78.1793 0.654153 78.1457 0.31869C78.1457 0.234824 78.0616 0.150958 78.028 0.0670926C77.9439 0.117412 77.8262 0.150958 77.7758 0.234824C77.7085 0.335463 77.6749 0.452875 77.6749 0.570288C77.6749 1.09026 77.6749 1.61022 77.6749 2.14696C77.6917 2.76757 78.0616 3.25399 78.6669 3.42173C79.4571 3.63978 80.2136 3.48882 80.9702 3.17013ZM83.3912 5.01518C84.1814 5.18291 84.8876 5.23323 85.5937 5.03195C85.9636 4.93131 86.0981 4.61262 85.93 4.29393C85.7618 3.97524 85.5265 3.6901 85.2575 3.4385C84.9716 3.1869 84.3832 3.33786 84.0133 3.72364C83.7611 3.97524 83.7779 4.24361 84.0301 4.57907C83.8452 4.71326 83.6771 4.83067 83.4081 5.03195M86.821 3.40495C87.5272 3.79073 88.3342 3.79073 88.7209 3.37141C88.9226 3.15335 89.1244 3.10303 89.4102 3.10303C90.772 3.10303 92.1171 3.10303 93.4789 3.10303C93.6302 3.10303 93.8992 2.98562 93.916 2.88498C93.9665 2.56629 93.9328 2.21406 93.9328 1.82827C93.6975 1.91214 93.4957 1.96246 93.3108 2.02955C93.4789 2.88498 93.3948 2.83466 93.0586 2.71725C93.0754 2.48243 93.0922 2.2476 93.109 1.91214C92.8905 2.09665 92.7559 2.23083 92.6046 2.3147C92.5038 2.36502 92.2516 2.36502 92.2347 2.3147C92.0162 1.86182 91.8144 2.02955 91.5791 2.29792C91.5286 2.36502 91.4277 2.39856 91.3437 2.44888C91.2428 2.28115 91.1587 2.14696 91.0747 1.99601C90.7552 2.07987 90.4862 2.16374 90.5367 2.56629C90.5367 2.63339 90.419 2.70048 90.3685 2.76757C90.3181 2.70048 90.234 2.61661 90.2172 2.54952C90.2004 2.33147 90.2172 2.09665 90.2172 1.82827C89.9482 1.91214 89.7801 1.96246 89.5951 2.02955C89.6288 2.29792 89.6624 2.51597 89.696 2.7508H89.1916C89.1748 2.51597 89.1412 2.3147 89.1244 2.04633C88.7545 2.33147 88.4183 2.28115 88.082 2.11342C87.8298 1.99601 87.6449 2.07987 87.5608 2.34824C87.5104 2.4992 87.4431 2.63339 87.3759 2.85144C87.7457 2.9353 88.082 3.01917 88.4183 3.08626C88.4183 3.13658 88.4183 3.1869 88.4183 3.22045C88.0988 3.30431 87.7457 3.37141 87.4263 3.1869C87.1069 3.0024 86.9387 3.08626 86.821 3.42173M83.2231 3.08626C83.2231 3.08626 83.1222 3.08626 83.0886 3.11981C82.7355 3.30431 82.5338 3.57268 82.5674 3.99201C82.5674 4.09265 82.5002 4.21006 82.4161 4.27716C82.3657 4.3107 82.1975 4.27716 82.1807 4.24361C81.8781 3.57268 81.2728 3.67332 80.718 3.67332C79.2889 3.67332 77.8767 3.67332 76.4476 3.65655C76.2458 3.65655 76.0273 3.53914 75.7582 3.4385C75.691 3.58946 75.5565 3.84105 75.4052 4.14297C75.6069 4.14297 75.7414 4.15974 75.8759 4.17652C77.5068 4.17652 79.1376 4.21006 80.7684 4.22684C80.903 4.22684 81.0543 4.27716 81.1888 4.29393C81.1888 4.34425 81.1888 4.39457 81.1888 4.46166C80.903 4.46166 80.6171 4.46166 80.3313 4.46166C78.6837 4.46166 77.036 4.46166 75.3884 4.46166C75.237 4.46166 75.0857 4.5623 74.9344 4.61262C74.9344 4.64617 74.968 4.67971 74.9849 4.73003C76.1281 4.73003 77.2714 4.73003 78.4147 4.73003C79.911 4.73003 81.4073 4.78035 82.9205 4.79712C83.1895 4.79712 83.3576 4.74681 83.3408 4.44489C83.3072 4.00879 83.2735 3.55591 83.2399 3.10303M90.6039 4.04233C90.3013 4.39457 90.3013 4.46166 90.6039 4.73003C91.2428 5.30032 92.3356 5.31709 92.9745 4.76358C93.0418 4.69649 93.1426 4.62939 93.2267 4.62939C93.8488 4.61262 94.454 4.61262 95.0761 4.59585C96.253 4.57907 97.4299 4.73003 98.59 4.46166C98.7917 4.41134 98.9767 4.34425 99.1784 4.29393C98.5564 4.17652 97.9511 4.14297 97.3458 4.05911C96.7238 3.97524 96.1017 3.84105 95.4964 3.70687C95.4124 3.70687 95.3115 3.58946 95.2947 3.50559C95.1938 2.98562 95.1265 2.44888 95.0425 1.91214C94.9584 1.3754 94.8744 0.855431 94.7903 0.31869C94.1514 0.63738 94.0673 1.09026 94.2355 1.67732C94.3532 2.13019 94.37 2.61661 94.4204 2.98562C93.9833 3.20367 93.647 3.38818 93.2603 3.57268C93.5125 3.72364 93.7143 3.84105 93.9497 3.97524C93.294 4.19329 93.109 4.15974 92.7391 3.6901C92.6887 3.623 92.6383 3.57268 92.5878 3.50559C92.3188 3.20367 92.0162 3.10303 91.6295 3.27077C91.0242 3.55591 90.8897 3.74042 90.9234 4.27716C90.8057 4.17652 90.7048 4.09265 90.6039 4.00879M89.2925 4.64617C89.2925 4.64617 89.2925 4.5623 89.2925 4.52875C88.889 4.52875 88.4855 4.5623 88.082 4.52875C87.4767 4.46166 86.9555 4.22684 86.6865 3.623C86.3335 2.81789 86.4007 1.96246 86.4007 1.07348H86.8715C88.1492 1.07348 89.427 1.07348 90.7048 1.07348C90.9234 1.07348 91.1419 0.95607 91.3605 0.905751C91.3605 0.855431 91.3437 0.805112 91.3269 0.754792C91.2092 0.754792 91.0747 0.738019 90.957 0.738019C89.2757 0.721246 87.5944 0.6877 85.8963 0.6877C83.7947 0.6877 81.71 0.6877 79.6084 0.6877C79.3057 0.6877 79.0031 0.670926 78.7845 1.07348H84.6186C84.4841 1.3754 84.2991 1.61022 84.2655 1.86182C84.1814 2.36502 84.2151 2.38179 83.6939 2.3147C83.6771 2.07987 83.6602 1.86182 83.6266 1.54313C83.2567 1.86182 82.9373 1.8115 82.5842 1.64377C82.3488 1.52636 82.1471 1.59345 82.063 1.86182C82.0126 2.01278 81.9622 2.18051 81.8949 2.38179C82.2648 2.46565 82.5842 2.53275 82.9205 2.59984C82.9205 2.65016 82.9205 2.68371 82.9037 2.73403C82.5842 2.86821 82.248 2.86821 81.9117 2.73403C81.525 2.56629 81.4914 2.58307 81.3401 3.01917C81.9285 3.23722 82.5506 3.45527 83.1054 3.01917C83.3744 2.81789 83.6098 2.78434 83.8956 2.80112C84.0806 2.80112 84.2655 2.80112 84.4504 2.80112C85.0053 2.80112 85.0221 2.76757 84.9885 2.21406C84.9716 1.84505 84.9548 1.49281 84.9212 1.1238H85.8459C85.8963 1.96246 85.9132 2.76757 85.9972 3.57268C86.0645 4.3107 86.5857 4.8139 87.3254 4.91454C87.9979 5.01518 88.6536 4.84744 89.2925 4.67971M103.213 0.0670926C102.205 0.184505 102.692 0.989617 102.524 1.45927H100.809C100.843 1.34185 100.86 1.29153 100.893 1.19089C100.658 1.30831 100.49 1.39217 100.254 1.49281V0.0335463C99.5819 0.184505 99.5315 0.251597 99.5315 0.872204C99.5315 1.20767 99.5315 1.54313 99.5315 1.91214H99.0607C97.9847 1.91214 96.9255 1.91214 95.8495 1.89537C95.5805 1.89537 95.2947 1.89537 95.1434 2.29792H99.5483C99.5483 3.01917 99.5483 3.6901 99.5483 4.34425C99.5483 4.59585 99.6156 4.71326 99.8846 4.67971C100.406 4.64617 100.944 4.57907 101.465 4.61262C101.902 4.62939 102.137 4.41134 102.356 4.04233C101.868 3.82428 101.599 3.47204 101.599 2.9353C100.877 3.22045 100.742 3.47204 100.893 4.34425C100.658 4.24361 100.338 4.19329 100.322 4.10942C100.271 3.52236 100.305 2.9353 100.305 2.3147C100.927 2.3147 101.566 2.33147 102.188 2.3147C102.524 2.3147 102.608 2.41534 102.608 2.7508C102.591 3.37141 102.608 4.00879 102.608 4.64617C103.197 4.64617 103.701 4.64617 104.205 4.64617C105.567 4.64617 106.946 4.61262 108.308 4.57907C108.509 4.57907 108.846 4.52875 108.896 4.41134C109.014 4.10943 108.98 3.77396 109.031 3.37141C108.745 3.57268 108.577 3.80751 108.375 3.82428C108.207 3.82428 108.022 3.60623 107.837 3.47204C107.669 3.623 107.484 3.77396 107.265 3.94169C107.164 3.75719 107.08 3.623 107.013 3.48882C106.542 3.50559 106.408 3.79073 106.442 4.22684C106.257 4.24361 106.105 4.29393 105.954 4.27716C105.853 4.27716 105.702 4.15974 105.702 4.10942C105.685 3.53914 105.702 2.96885 105.702 2.33147C106.021 2.33147 106.357 2.36502 106.677 2.33147C106.879 2.29792 107.181 2.16374 107.215 2.01278C107.282 1.71086 106.98 1.61022 106.727 1.5599C106.559 1.52636 106.391 1.50958 106.223 1.50958C106.055 1.50958 105.87 1.50958 105.668 1.50958V0.0503195C104.592 0.100639 105.097 0.922524 104.996 1.44249H103.247V0.0670926H103.213ZM109.804 0.972843C109.703 1.14057 109.501 1.32508 109.501 1.49281C109.501 2.39856 109.501 3.33786 109.636 4.22684C109.686 4.57907 110.09 4.89776 110.308 5.19968H38.5516V83.1278C38.5516 83.1278 38.6693 83.1613 38.7365 83.1613C40.2497 83.1613 41.7797 83.1949 43.276 83.1278C44.9741 83.0439 46.3359 82.2388 47.3951 80.9305C48.2694 79.857 48.8074 78.6158 49.1268 77.2907C49.1773 77.0559 49.2613 76.9217 49.5471 77.0224V83.5303H49.0596C43.2424 83.5303 37.4251 83.5303 31.6247 83.5303C31.4566 83.5303 31.1372 83.6981 31.1204 83.3626C31.1204 83.0104 31.4398 83.1781 31.6079 83.1781C32.1291 83.1613 32.6671 83.1781 33.2388 83.1781V0H117V5.13259C116.882 4.79712 116.781 4.51198 116.681 4.24361C116.193 4.24361 115.722 4.3107 115.268 4.24361C114.344 4.09265 113.923 3.63978 113.806 2.73403C113.721 2.11342 113.721 1.47604 113.705 0.855431C113.705 0.704473 113.705 0.553514 113.705 0.402556C113.654 0.385783 113.604 0.36901 113.553 0.352236C113.436 0.553514 113.234 0.754792 113.234 0.939297C113.234 1.79473 113.234 2.65016 113.335 3.48882C113.419 4.15974 114.007 4.61262 114.697 4.64617C114.999 4.66294 115.302 4.64617 115.604 4.62939C115.907 4.59585 116.193 4.51198 116.496 4.46166C116.748 5.61901 116.243 6.45767 115.134 6.75958C113.99 7.07827 112.814 6.99441 111.603 7.01118V5.35064C112.007 5.26677 112.41 5.16613 112.83 5.08227C112.83 5.0655 112.83 5.04872 112.83 5.03195C112.225 4.98163 111.637 4.91454 111.031 4.86422C111.031 4.8139 111.031 4.7468 111.031 4.69649C111.569 4.67971 112.107 4.61262 112.645 4.64617C113.083 4.66294 113.284 4.44489 113.503 4.10942C113.099 3.85783 112.73 3.55591 112.78 3.01917C112.141 3.13658 111.922 3.50559 112.023 4.26038C111.536 4.39457 111.452 4.34425 111.452 3.8746C111.452 2.78434 111.452 1.69409 111.452 0.603834V0.0503195C110.813 0.150958 110.712 0.268371 110.712 0.855431C110.712 1.91214 110.712 2.95208 110.729 4.00879V4.47843C110.729 4.47843 110.645 4.51198 110.594 4.52875C110.46 4.27716 110.241 4.0591 110.191 3.79073C110.073 3.20367 110.023 2.59984 109.955 1.99601C109.922 1.67732 109.955 1.35863 109.955 1.02316C109.905 1.00639 109.871 0.989617 109.821 0.972843" fill="white"/>
<path d="M113.705 41.1781C113.806 41.0607 113.839 41.0271 113.839 41.0104C113.906 40.4065 113.991 39.7859 114.024 39.1821C114.041 38.7963 113.806 38.595 113.402 38.595C113.268 38.595 113.133 38.595 113.015 38.6286C112.511 38.6957 112.057 39.0479 112.023 39.3498C112.007 39.6853 112.326 40.0878 112.864 40.222C113.352 40.3562 113.671 40.5743 113.688 41.1949M111.57 37.3203C111.822 37.2364 112.023 37.1861 112.208 37.1022C112.713 36.8338 113.184 36.5151 113.688 36.2803C113.907 36.1797 114.209 36.1461 114.428 36.2132C114.949 36.3474 115.436 36.5655 115.991 36.7667V34.2508C115.319 34.603 114.747 34.8714 114.192 35.1901C113.822 35.4081 113.469 35.4584 113.066 35.2739C112.713 35.123 112.36 34.972 111.99 34.8714C111.603 34.7707 111.469 34.5695 111.57 34.234C113.032 34.452 114.478 34.4856 115.907 34.0663C116.311 33.9489 116.647 33.5631 116.966 33.3282V83.4968H99.9519V78.1126H111.536V43.5766C111.822 43.476 112.04 43.4089 112.259 43.2915C112.629 43.107 113.015 42.9057 113.352 42.6541C113.839 42.3019 114.31 42.3019 114.831 42.5535C115.184 42.7212 115.571 42.8386 116.042 43.0064C116.042 42.5703 116.042 42.1845 116.042 41.8155C116.008 40.4065 115.958 38.9976 115.924 37.6054C115.907 36.8506 115.739 36.7164 115.016 36.9177C114.293 37.119 113.57 37.3035 112.864 37.5048C113.486 37.8738 114.192 37.5048 114.898 37.6222C114.714 37.7228 114.529 37.8235 114.293 37.9409C114.545 38.1254 114.747 38.2931 115.033 38.4944C114.781 38.595 114.579 38.6789 114.36 38.7628C114.495 39.0814 114.663 39.3163 115.05 39.2659C115.336 39.2324 115.453 39.333 115.487 39.6517C115.571 40.6749 115.537 40.591 114.73 41.1445C113.957 41.6645 113.251 41.631 112.461 41.262C111.62 40.8762 111.62 40.9265 111.62 40.004V37.2867" fill="white"/>
<path d="M91.9154 63.3187C91.6296 64.1071 91.3438 64.8954 91.0748 65.6837C89.0236 71.5208 86.9556 77.3411 84.9045 83.1781C84.8372 83.3459 84.8372 83.5639 84.5514 83.5639C84.232 83.5639 84.232 83.3459 84.1647 83.1614C81.8614 76.6702 79.558 70.1957 77.2547 63.7213C77.2042 63.6039 77.1706 63.4865 77.0697 63.3858V83.1949H79.205C79.3058 83.1949 79.4235 83.1781 79.5244 83.1949C79.6085 83.2285 79.6589 83.3123 79.7261 83.3794C79.6589 83.4297 79.5916 83.5472 79.5244 83.5472C79.2218 83.5639 78.9191 83.5472 78.6165 83.5472C77.1706 83.5472 75.7247 83.5472 74.262 83.5472C74.1443 83.5472 74.0266 83.4297 73.9089 83.3794C74.0266 83.3123 74.1443 83.1949 74.262 83.1949C74.9177 83.1781 75.5734 83.1781 76.2459 83.1949C76.5317 83.1949 76.6158 83.0943 76.599 82.8259C76.5822 82.5072 76.599 82.1885 76.599 81.8866V63.2684H73.9762C73.8417 62.9497 73.9762 62.8658 74.2452 62.8658C76.5317 62.8658 78.8014 62.8658 81.088 62.8658C81.3234 62.8658 81.4411 62.9497 81.5083 63.1678C82.8197 66.9585 84.1479 70.7492 85.4593 74.5567C85.7787 75.4793 86.0982 76.4018 86.4681 77.4417C86.5689 77.1901 86.6194 77.0392 86.6698 76.905C88.2838 72.3595 89.8979 67.8307 91.4783 63.2852C91.596 62.9665 91.7473 62.8658 92.0667 62.8826C94.2188 62.8826 96.3708 62.8826 98.506 62.8826C98.7414 62.8826 98.9936 62.8491 98.8591 63.2684H96.2531V83.2117C97.0433 83.2117 97.7999 83.2117 98.5564 83.2117C98.775 83.2117 98.9768 83.2117 98.8591 83.5639C98.7246 83.5639 98.5901 83.5807 98.4556 83.5807H89.797C89.797 83.5807 89.6457 83.5975 89.5952 83.5807C89.5112 83.5304 89.4439 83.4633 89.3599 83.3962C89.4439 83.3291 89.528 83.2285 89.6121 83.2285C90.2173 83.2117 90.8226 83.2285 91.4278 83.2285H91.9995V63.3858C91.9995 63.3858 91.949 63.3858 91.9154 63.369" fill="white"/>
<path d="M12.6935 83.6478V77.1901C12.9962 77.0727 13.097 77.1901 13.1643 77.4752C13.5678 79.2867 14.3412 80.897 15.7535 82.1549C16.779 83.0775 17.9559 83.631 19.3682 83.5807C20.1752 83.5471 20.9822 83.5807 21.7556 83.3794C24.0758 82.8426 25.5721 80.4105 25.0173 78.23C24.7819 77.2739 24.1262 76.6701 23.3192 76.2005C22.1423 75.5128 20.8141 75.2444 19.5363 74.8418C18.1913 74.4393 16.8295 74.0367 15.6358 73.2652C14.0554 72.2252 13.2315 70.766 13.097 68.8706C12.9121 66.0863 14.7951 63.9728 16.9808 63.0335C19.1496 62.0942 21.3185 62.2452 23.4873 63.0671C23.7059 63.1509 23.9245 63.2516 24.143 63.3187C24.5297 63.4529 24.9164 63.52 25.3367 63.3858C25.5553 63.3019 25.8243 63.3522 26.1101 63.3354V68.3171C25.8411 68.4345 25.7402 68.3171 25.6562 68.0823C25.2863 67.1765 24.9837 66.2204 24.5129 65.365C23.4705 63.4025 21.7724 62.6142 19.5868 62.7819C18.2417 62.8826 17.0312 63.3187 16.1065 64.3418C14.7951 65.8011 14.9633 67.7132 16.5773 68.8203C17.3339 69.3402 18.2249 69.7093 19.0824 70.0279C20.6796 70.6318 22.3272 71.1014 23.9245 71.7053C25.0173 72.1078 25.9756 72.7452 26.6986 73.6677C28.0604 75.4121 28.0604 77.3746 27.3038 79.3203C26.3455 81.8027 24.3448 83.1446 21.8229 83.7484C20.0071 84.1845 18.2081 83.9329 16.4428 83.48C15.7535 83.2955 15.0641 83.111 14.3748 82.9601C13.7023 82.8091 13.5174 82.893 13.1139 83.4465C13.0298 83.5471 12.8449 83.5639 12.6599 83.6478" fill="white"/>
<path d="M59.6348 67.1262C59.6348 67.1262 59.5675 67.1262 59.5171 67.1262C58.4579 69.726 57.3819 72.3091 56.3058 74.9257H62.9973C61.8541 72.2923 60.7444 69.7092 59.618 67.1262M73.6062 83.1781C73.7575 83.5974 73.4717 83.5471 73.2531 83.5471C70.7648 83.5471 68.2765 83.5471 65.7882 83.5471H63.922C63.8043 83.2787 63.8548 83.1613 64.1406 83.1781C64.914 83.1781 65.6874 83.1781 66.528 83.1781C66.4608 83.0104 66.4271 82.8929 66.3935 82.7923C65.3679 80.4441 64.3423 78.0958 63.3504 75.7476C63.2159 75.4457 63.0646 75.345 62.7283 75.345C60.6604 75.345 58.5924 75.345 56.5244 75.345C56.289 75.345 56.1377 75.3953 56.0368 75.6302C55.0449 78.0623 54.0361 80.4776 53.0274 82.9097C52.9937 82.9768 52.9937 83.0607 52.9601 83.1781H54.9944C55.0953 83.1781 55.213 83.1613 55.3139 83.1781C55.398 83.2116 55.4484 83.2955 55.5156 83.3626C55.4484 83.4297 55.3811 83.5303 55.3139 83.5303C54.9608 83.5471 54.6078 83.5303 54.2379 83.5303C52.9433 83.5303 51.6487 83.5303 50.3709 83.5303C50.1356 83.5303 49.917 83.5303 50.0683 83.1613C50.724 83.1613 51.3965 83.1613 52.069 83.1613C52.3717 83.1613 52.5062 83.0607 52.6239 82.7923C55.4148 75.9824 58.2225 69.1893 60.9966 62.3961C61.1143 62.111 61.2488 61.9768 61.5682 61.9936C61.8541 61.9936 61.9886 62.0942 62.0894 62.3458C65.0149 69.0886 67.9571 75.8314 70.8657 82.591C71.0506 83.0271 71.2692 83.2284 71.7568 83.1781C72.3788 83.1278 72.9841 83.1781 73.5894 83.1781" fill="white"/>
<path d="M2.75724 63.2348H0.15126C0.0840087 63 0.0840086 62.849 0.369826 62.849C3.42975 62.849 6.48967 62.849 9.54959 62.849C9.56641 62.849 9.60003 62.8658 9.65047 62.8825V63.218H7.02768C7.02768 63.3857 7.01087 63.5199 7.01087 63.6709C7.01087 70.0279 7.01087 76.3682 7.01087 82.7252C7.01087 83.111 7.14537 83.1948 7.48162 83.1781C8.20457 83.1613 8.92752 83.1781 9.63366 83.1781C9.78497 83.5639 9.54959 83.5471 9.33103 83.5471C6.37198 83.5471 3.42975 83.5471 0.470702 83.5471C0.369826 83.5471 0.268949 83.5471 0.168072 83.5303C0.0671959 83.2787 0.15126 83.1781 0.403451 83.1781C1.04234 83.1781 1.69803 83.1781 2.33692 83.1781H2.77405V63.2348H2.75724Z" fill="white"/>
<path d="M113.15 26.619C113.15 26.2835 113.15 26.0487 113.15 25.8139C113.15 24.405 113.15 22.996 113.183 21.5871C113.183 21.4193 113.268 21.2516 113.301 21.1006C113.368 21.1006 113.419 21.1006 113.486 21.1006C113.503 21.3019 113.537 21.52 113.537 21.7212C113.537 23.3147 113.537 24.9081 113.503 26.5016C113.503 26.7867 113.553 26.988 113.906 27.0048C113.906 24.7404 113.906 22.476 113.906 20.2284C113.906 19.7252 113.974 19.222 113.957 18.7356C113.923 17.1925 113.856 15.6494 113.806 14.1062C113.806 14.0224 113.755 13.9217 113.721 13.8379C113.671 13.8379 113.637 13.8379 113.587 13.8379C113.57 14.274 113.52 14.7101 113.52 15.1462C113.52 15.8339 113.318 16.4377 112.914 16.9744C112.645 17.3267 112.309 17.4944 111.838 17.4944C111.838 17.3099 111.855 17.1422 111.838 16.9744C111.805 16.7564 111.704 16.5551 111.654 16.3371C111.62 16.2364 111.586 16.119 111.586 16.0016C111.586 15.381 111.586 14.7604 111.586 14.1398C111.586 13.7204 111.754 13.4856 112.158 13.4521C112.881 13.385 113.604 13.3682 114.327 13.3347C114.68 13.3347 114.882 13.5527 115.016 13.8379C115.083 13.972 115.117 14.1062 115.151 14.2404C115.806 14.2404 115.907 14.1062 115.672 13.5192C115.52 13.1166 115.218 12.8818 114.781 12.865C114.545 12.865 114.31 12.865 114.075 12.865C114.075 12.4457 114.075 12.0934 114.075 11.7412C114.075 11.5232 113.99 11.4225 113.772 11.4225C113.083 11.4225 112.376 11.4225 111.67 11.4728C111.889 11.8083 112.124 12.0934 112.561 12.0934C112.73 12.0934 112.898 12.1102 113.083 12.1102C113.368 12.1102 113.452 12.2612 113.452 12.5463C113.452 12.8315 113.301 12.8482 113.083 12.865C112.595 12.8818 112.124 12.9153 111.603 12.9489V11.3219C112.427 11.3219 113.217 11.3219 114.024 11.3219C114.613 11.3219 115.184 11.3554 115.756 11.389C115.857 11.389 116.008 11.5232 116.008 11.607C116.042 13.3179 116.042 15.0455 116.075 16.7732C116.075 17.008 115.991 17.0919 115.789 17.1589C115.151 17.3434 114.966 17.6286 114.966 18.3163C114.966 19.6917 114.966 21.0839 114.966 22.4593C114.966 22.778 114.932 23.0463 114.512 23.1302C114.882 23.2476 115.235 23.3818 115.689 23.5327V23.0631C115.689 21.5367 115.705 20.0104 115.739 18.484C115.739 18.3163 115.823 18.1653 115.874 17.9976L116.042 18.0311C116.058 18.2492 116.092 18.4673 116.092 18.6853C116.092 20.2788 116.092 21.8722 116.058 23.4657C116.058 23.7676 116.143 23.9521 116.412 23.9688C116.412 22.9792 116.412 22.0064 116.412 21.0335C116.412 17.8131 116.445 14.5927 116.462 11.3722C116.462 10.7516 116.462 10.7516 115.823 10.7348C114.512 10.7348 113.217 10.7013 111.906 10.6845C111.788 10.6845 111.687 10.6677 111.569 10.5671C111.62 10.5503 111.687 10.5 111.754 10.5C112.847 10.4832 113.94 10.5 115.033 10.4329C115.823 10.3826 116.529 10.1478 116.983 9.34265V25.512C116.865 25.1933 116.765 24.8914 116.647 24.5727C116.613 24.5727 116.58 24.5727 116.546 24.5895C116.546 24.8411 116.546 25.0926 116.546 25.3442C116.546 26.1661 116.159 26.8203 115.352 27.0048C114.478 27.2061 113.553 27.2564 112.662 27.357C112.309 27.3906 111.956 27.357 111.569 27.357C111.637 26.9712 111.435 26.6022 111.754 26.3003C111.822 26.2332 111.788 26.0487 111.788 25.9145C111.788 23.9018 111.788 21.889 111.805 19.8762V19.2724C112.208 19.2891 112.595 19.3059 112.965 19.3562C113.099 19.3562 113.335 19.5072 113.335 19.5575C113.318 19.7756 113.268 20.1278 113.116 20.1781C112.578 20.3962 112.41 20.7819 112.41 21.3355C112.41 22.7276 112.41 24.1198 112.41 25.512C112.41 25.8307 112.376 26.1158 111.923 26.0487C111.923 26.0823 111.923 26.1158 111.923 26.1494C112.292 26.2835 112.662 26.401 113.133 26.5687" fill="white"/>
<path d="M111.586 33.9154V29.7724C112.292 29.7221 112.982 29.6885 113.671 29.6382C114.041 29.6214 114.411 29.6047 114.781 29.5711C115.067 29.5543 115.235 29.6885 115.319 29.9401C115.537 30.5775 115.184 31.2484 114.529 31.4162C114.159 31.5 113.772 31.5168 113.402 31.5503C113.184 32.607 113.621 33.2947 114.747 33.7309C113.705 33.7812 112.662 33.8315 111.586 33.8818" fill="white"/>
<path d="M8.49053 56.7604V54.496C8.3224 54.496 8.17109 54.4625 8.03658 54.4457L9.95324 54.429C9.81874 54.4625 9.66742 54.4793 9.51611 54.496V59.2429C9.66742 59.2429 9.81874 59.2596 9.95324 59.2764L8.0534 59.2932C8.0534 59.2932 8.0534 59.2764 8.0534 59.2596C8.1879 59.2596 8.3224 59.2429 8.49053 59.2261V56.8611H6.50662V59.2261C6.67475 59.2261 6.80925 59.2429 6.94375 59.2596L5.0271 59.2764C5.1616 59.2429 5.2961 59.2261 5.46423 59.2261V54.4793C5.32973 54.4793 5.17841 54.4457 5.04391 54.4457C5.04391 54.4457 5.04391 54.4457 5.04391 54.429H6.92694C6.79244 54.4625 6.65794 54.4625 6.48981 54.4793V56.7437H8.49053V56.7604Z" fill="white"/>
<path d="M116.983 32.1038C116.849 31.8522 116.748 31.6342 116.63 31.4161C116.597 31.4161 116.563 31.4161 116.529 31.4161C116.563 32.1374 116.479 32.7915 115.84 33.3115C116.227 32.4393 116.075 31.5839 116.058 30.7452C116.042 30.0743 115.941 29.4034 115.924 28.7492C115.924 28.3634 115.789 28.1789 115.369 28.1957C114.327 28.2628 113.268 28.2963 112.208 28.3634C112.007 28.3634 111.822 28.3634 111.586 28.3634V27.8602C112.141 27.8602 112.713 27.8602 113.284 27.8602C113.906 27.8602 114.529 27.8267 115.134 27.7764C115.874 27.7093 116.546 27.4577 116.95 26.7029V32.1374L116.983 32.1038Z" fill="white"/>
<path d="M111.586 10.1478V9.0911C111.586 9.0911 111.771 9.05756 111.805 8.99047C112.292 8.30277 113.049 8.4034 113.738 8.33631C113.991 8.31954 114.243 8.33631 114.495 8.33631C115.151 8.33631 115.319 8.4705 115.537 9.07433C115.554 9.14142 115.588 9.19174 115.621 9.27561C115.789 9.25884 115.924 9.24206 116.126 9.20852C115.84 9.5943 115.453 9.76203 115.05 9.81235C113.923 9.94654 112.78 10.0472 111.586 10.1478Z" fill="white"/>
<path d="M1.24414 59.2764C1.37865 59.2764 1.49634 59.2428 1.64765 59.2428V54.5463C0.840638 54.345 0.437132 54.5966 0 55.603V54.4457H4.27044V55.6366C3.98462 54.7979 3.53068 54.345 2.65642 54.5128V59.2428C2.79092 59.2428 2.92542 59.2764 3.05992 59.2764L1.24414 59.2931C1.24414 59.2931 1.24414 59.2931 1.24414 59.2764Z" fill="white"/>
<path d="M11.3151 54.4792C11.1469 54.4792 11.0124 54.4624 10.8779 54.4457C10.8779 54.4457 10.8779 54.4289 10.8779 54.4121H12.7946V54.4457C12.6433 54.4457 12.5088 54.4624 12.3406 54.4792V59.226C12.492 59.226 12.6433 59.2596 12.7946 59.2763L10.8779 59.2931V59.2596C11.0124 59.2596 11.1469 59.2428 11.3151 59.226V54.4624V54.4792Z" fill="white"/>
<path d="M20.1416 59.2764C20.2761 59.2764 20.4274 59.2596 20.5787 59.2428V54.496C20.4274 54.496 20.2761 54.4625 20.1416 54.4625L22.0583 54.4457C22.0583 54.4457 22.0583 54.4625 22.0583 54.4792C21.9238 54.4792 21.7893 54.496 21.6211 54.5128V59.2764C21.7556 59.2764 21.8901 59.2931 22.0246 59.3099L20.1752 59.3267C20.1752 59.3267 20.1752 59.3267 20.1584 59.3099" fill="white"/>
<path d="M16.0057 59.3266C16.157 59.2092 16.2579 59.1421 16.3252 59.075C16.9136 58.5383 16.7959 57.7835 16.073 57.4983C15.6358 57.3138 15.1651 57.2132 14.7279 57.0287C14.0554 56.7603 13.7192 56.2068 13.8369 55.5862C13.9377 54.9488 14.4589 54.4624 15.1483 54.3785C15.0138 54.4456 14.8624 54.496 14.7448 54.5798C14.1731 54.9488 14.1563 55.6198 14.7784 55.9384C15.2828 56.19 15.8376 56.341 16.3588 56.5423C16.7959 56.71 17.1658 56.9784 17.2835 57.4983C17.4516 58.3035 16.964 59.075 16.0225 59.3602" fill="white"/>
<path d="M24.3786 54.3451C24.1768 54.4793 23.9751 54.5631 23.8238 54.7141C23.4371 55.0663 23.4875 55.5695 23.9078 55.8547C24.1432 56.0056 24.429 56.1063 24.698 56.2069C25.0006 56.3243 25.3033 56.4082 25.5891 56.5256C26.1103 56.7269 26.497 57.0791 26.5474 57.6662C26.581 58.2365 26.3457 58.7229 25.8749 59.0583C25.7236 59.1758 25.5387 59.2429 25.3369 59.2932C25.421 59.2261 25.505 59.1758 25.5723 59.0919C26.1607 58.5719 26.043 57.8004 25.3201 57.5152C24.8661 57.3307 24.3618 57.2133 23.9078 57.012C23.1176 56.6766 22.8318 55.8211 23.2353 55.1167C23.4875 54.6806 23.891 54.4457 24.3618 54.3619" fill="white"/>
<path d="M117 6.27319V8.21888C116.866 7.86664 116.765 7.5815 116.647 7.27958C116.479 7.84987 116.681 8.47048 116.26 8.99045C116.21 8.80594 116.159 8.63821 116.109 8.48725C115.974 8.11824 115.705 7.86664 115.319 7.88342C114.226 7.88342 113.15 7.93374 112.057 7.98406C111.906 7.98406 111.771 8.06792 111.603 8.11824V7.46409C111.738 7.46409 111.889 7.46409 112.023 7.46409C113.083 7.43054 114.159 7.43054 115.218 7.36345C115.958 7.31313 116.613 7.02799 117.017 6.27319" fill="white"/>
<path d="M111.603 35.1565C112.091 35.3242 112.561 35.5087 113.049 35.6765C113.049 35.7268 113.049 35.7603 113.049 35.8106C112.578 36.079 112.108 36.3474 111.603 36.6493V35.1733V35.1565Z" fill="white"/>
<path d="M111.586 42.889V41.413C112.091 41.5975 112.561 41.7652 113.032 41.9329V42.0671C112.561 42.3355 112.107 42.6039 111.586 42.889Z" fill="white"/>
<path d="M115.167 28.9504C115.067 29.0175 114.982 29.1182 114.882 29.1182C113.856 29.1853 112.83 29.2356 111.805 29.2859C111.738 29.2859 111.654 29.1853 111.586 29.1517C111.637 29.1014 111.687 29.0175 111.738 29.0175C112.864 28.9337 113.991 28.8498 115.117 28.7827C115.134 28.833 115.151 28.9001 115.184 28.9672" fill="white"/>
<path d="M113.385 18.266C113.385 18.3666 113.385 18.5176 113.402 18.7021H111.839V18.1821C112.326 18.1989 112.83 18.2324 113.385 18.266Z" fill="white"/>
<path d="M14.8793 59.3435C14.5599 59.2932 14.1564 59.2261 13.7192 59.1758V57.901C13.8874 58.2197 14.0051 58.5216 14.19 58.7732C14.3917 59.0248 14.6776 59.1925 14.8793 59.3603" fill="white"/>
<path d="M24.2441 59.3769C23.8406 59.3098 23.4203 59.2428 22.9832 59.1757V57.9344C23.2353 58.5718 23.5548 59.1253 24.2441 59.3769Z" fill="white"/>
<path d="M16.88 54.5295V55.5695C16.611 55.083 16.4429 54.5463 15.8376 54.3282C16.0058 54.3786 16.1571 54.4289 16.3252 54.4624C16.4933 54.496 16.6615 54.496 16.8632 54.5295" fill="white"/>
<path d="M26.1439 54.5631V55.5695C25.8749 55.0663 25.6899 54.5296 25.0679 54.3451C25.4041 54.4122 25.7572 54.4793 26.1439 54.5631Z" fill="white"/>
<path d="M114.932 35.4417C115.151 35.4752 115.336 35.5087 115.504 35.5423C115.436 35.6429 115.403 35.8274 115.302 35.8442C115.083 35.9113 114.932 35.8442 114.932 35.4417Z" fill="white"/>
<path d="M115.47 41.6477C115.537 42.0335 115.403 42.1341 115.167 42.1006C115.066 42.0838 114.999 41.9496 114.915 41.8658C115.1 41.7987 115.285 41.7316 115.47 41.6645" fill="white"/>
<path d="M104.912 4.24363H104.34V3.35466C104.105 3.42175 103.92 3.47207 103.718 3.52239C103.752 3.77399 103.768 3.99204 103.802 4.22686C103.466 4.3275 103.314 4.26041 103.314 3.90817C103.314 3.40498 103.264 2.88501 103.23 2.34827H104.928V4.24363H104.912Z" fill="white"/>
<path d="M102.356 1.89531H100.389L102.323 1.87854H102.339L102.356 1.89531Z" fill="white"/>
</g>
<defs>
<clipPath id="clip0_30_18408">
<rect width="117" height="84" fill="white"/>
</clipPath>
</defs>
</svg>
