<svg width="145" height="104" viewBox="0 0 145 104" fill="none" xmlns="http://www.w3.org/2000/svg">
<g clip-path="url(#clip0_7_2)">
<path d="M132.207 3.40575C133.04 3.86262 134.04 3.88339 134.519 3.40575C135.04 2.92811 135.332 2.55431 134.999 1.72364C134.603 2.05591 134.186 1.97284 133.769 1.76518C133.457 1.61981 133.248 1.70288 133.123 2.03514C133.061 2.22204 132.998 2.40895 132.894 2.67891C133.353 2.78275 133.769 2.86581 134.165 2.94888C134.165 2.99042 134.165 3.05272 134.165 3.09425C133.769 3.28115 133.332 3.30192 132.957 3.09425C132.561 2.86581 132.373 2.99042 132.207 3.38498M100.348 3.92492C99.9728 3.92492 99.5769 3.92492 99.2018 3.92492C97.7225 3.88339 96.9307 3.07348 96.889 1.61981C96.889 1.20447 96.889 0.809904 96.8473 0.394569C96.8473 0.290735 96.7431 0.186901 96.7015 0.0830671C96.5973 0.145367 96.4514 0.186901 96.3889 0.290735C96.3056 0.415335 96.2639 0.560703 96.2639 0.70607C96.2639 1.34984 96.2639 1.99361 96.2639 2.65815C96.2847 3.42652 96.7431 4.02875 97.4933 4.23642C98.4726 4.50639 99.4102 4.31949 100.348 3.92492ZM103.348 6.20927C104.328 6.41693 105.203 6.47923 106.078 6.23003C106.536 6.10543 106.703 5.71086 106.495 5.31629C106.286 4.92173 105.994 4.56869 105.661 4.25719C105.307 3.94569 104.578 4.13259 104.119 4.61022C103.807 4.92173 103.827 5.25399 104.14 5.66933C103.911 5.83546 103.702 5.98083 103.369 6.23003M107.599 4.21565C108.474 4.69329 109.474 4.69329 109.953 4.17412C110.203 3.90415 110.453 3.84185 110.808 3.84185C112.495 3.84185 114.162 3.84185 115.85 3.84185C116.038 3.84185 116.371 3.69649 116.392 3.57189C116.454 3.17732 116.413 2.74121 116.413 2.26358C116.121 2.36741 115.871 2.42971 115.642 2.51278C115.85 3.57189 115.746 3.50958 115.329 3.36422C115.35 3.07348 115.371 2.78275 115.392 2.36741C115.121 2.59585 114.954 2.76198 114.767 2.86581C114.642 2.92812 114.329 2.92812 114.308 2.86581C114.037 2.30511 113.787 2.51278 113.496 2.84505C113.433 2.92812 113.308 2.96965 113.204 3.03195C113.079 2.82428 112.975 2.65815 112.87 2.47125C112.475 2.57508 112.141 2.67891 112.204 3.17732C112.204 3.26038 112.058 3.34345 111.995 3.42652C111.933 3.34345 111.829 3.23962 111.808 3.15655C111.787 2.88658 111.808 2.59585 111.808 2.26358C111.474 2.36741 111.266 2.42971 111.037 2.51278C111.079 2.84505 111.12 3.11502 111.162 3.40575H110.537C110.516 3.11502 110.474 2.86581 110.453 2.53355C109.995 2.88658 109.578 2.82428 109.162 2.61661C108.849 2.47125 108.62 2.57508 108.516 2.90735C108.453 3.09425 108.37 3.26038 108.286 3.53035C108.745 3.63419 109.162 3.73802 109.578 3.82109C109.578 3.88339 109.578 3.94569 109.578 3.98722C109.182 4.09105 108.745 4.17412 108.349 3.94569C107.953 3.71725 107.745 3.82109 107.599 4.23642M103.14 3.82109C103.14 3.82109 103.015 3.82109 102.973 3.86262C102.536 4.09105 102.286 4.42332 102.327 4.94249C102.327 5.06709 102.244 5.21246 102.14 5.29553C102.077 5.33706 101.869 5.29553 101.848 5.25399C101.473 4.42332 100.723 4.54792 100.035 4.54792C98.2642 4.54792 96.514 4.54792 94.7429 4.52716C94.4928 4.52716 94.222 4.38179 93.8886 4.25719C93.8052 4.44409 93.6385 4.75559 93.451 5.12939C93.701 5.12939 93.8677 5.15016 94.0344 5.17093C96.0555 5.17093 98.0767 5.21246 100.098 5.23323C100.264 5.23323 100.452 5.29553 100.619 5.31629C100.619 5.37859 100.619 5.44089 100.619 5.52396C100.264 5.52396 99.9103 5.52396 99.556 5.52396C97.5141 5.52396 95.4721 5.52396 93.4302 5.52396C93.2426 5.52396 93.0551 5.64856 92.8676 5.71086C92.8676 5.7524 92.9093 5.79393 92.9301 5.85623C94.347 5.85623 95.7638 5.85623 97.1807 5.85623C99.0351 5.85623 100.89 5.91853 102.765 5.9393C103.098 5.9393 103.307 5.877 103.286 5.5032C103.244 4.96326 103.202 4.40256 103.161 3.84185M112.287 5.00479C111.912 5.44089 111.912 5.52396 112.287 5.85623C113.079 6.5623 114.433 6.58307 115.225 5.89776C115.308 5.8147 115.433 5.73163 115.538 5.73163C116.308 5.71086 117.059 5.71086 117.83 5.6901C119.288 5.66933 120.747 5.85623 122.184 5.52396C122.434 5.46166 122.664 5.37859 122.914 5.31629C122.143 5.17093 121.393 5.12939 120.642 5.02556C119.871 4.92173 119.101 4.75559 118.35 4.58946C118.246 4.58946 118.121 4.44409 118.1 4.34026C117.975 3.69649 117.892 3.03195 117.788 2.36741C117.684 1.70288 117.579 1.05911 117.475 0.394569C116.684 0.789137 116.579 1.34984 116.788 2.07668C116.934 2.63738 116.954 3.23962 117.017 3.69649C116.475 3.96645 116.058 4.19489 115.579 4.42332C115.892 4.61022 116.142 4.75559 116.433 4.92172C115.621 5.19169 115.392 5.15016 114.933 4.56869C114.871 4.48562 114.808 4.42332 114.746 4.34026C114.412 3.96645 114.037 3.84185 113.558 4.04952C112.808 4.40256 112.641 4.63099 112.683 5.29553C112.537 5.17093 112.412 5.06709 112.287 4.96326M110.662 5.7524C110.662 5.7524 110.662 5.64856 110.662 5.60703C110.162 5.60703 109.662 5.64856 109.162 5.60703C108.411 5.52396 107.766 5.23323 107.432 4.48562C106.995 3.48882 107.078 2.42971 107.078 1.32907H107.661C109.245 1.32907 110.829 1.32907 112.412 1.32907C112.683 1.32907 112.954 1.18371 113.225 1.12141C113.225 1.05911 113.204 0.996805 113.183 0.934505C113.037 0.934505 112.87 0.913738 112.725 0.913738C110.641 0.892971 108.557 0.851438 106.453 0.851438C103.848 0.851438 101.265 0.851438 98.6601 0.851438C98.285 0.851438 97.91 0.830671 97.6391 1.32907H104.869C104.703 1.70288 104.473 1.99361 104.432 2.30511C104.328 2.92812 104.369 2.94888 103.723 2.86581C103.702 2.57508 103.682 2.30511 103.64 1.91054C103.182 2.30511 102.786 2.24281 102.348 2.03514C102.056 1.88978 101.806 1.97284 101.702 2.30511C101.64 2.49201 101.577 2.69968 101.494 2.94888C101.952 3.05272 102.348 3.13578 102.765 3.21885C102.765 3.28115 102.765 3.32268 102.744 3.38498C102.348 3.55112 101.931 3.55112 101.515 3.38498C101.035 3.17732 100.994 3.19808 100.806 3.73802C101.536 4.00799 102.306 4.27796 102.994 3.73802C103.327 3.48882 103.619 3.44728 103.973 3.46805C104.203 3.46805 104.432 3.46805 104.661 3.46805C105.349 3.46805 105.369 3.42652 105.328 2.74121C105.307 2.28435 105.286 1.84824 105.244 1.39137H106.39C106.453 2.42971 106.474 3.42652 106.578 4.42332C106.661 5.33706 107.307 5.96006 108.224 6.08466C109.057 6.20927 109.87 6.0016 110.662 5.79393M127.914 0.0830671C126.664 0.228435 127.268 1.22524 127.06 1.80671H124.935C124.976 1.66134 124.997 1.59904 125.039 1.47444C124.747 1.61981 124.539 1.72364 124.247 1.84824V0.0415335C123.414 0.228435 123.351 0.311502 123.351 1.07987C123.351 1.49521 123.351 1.91054 123.351 2.36741H122.768C121.434 2.36741 120.122 2.36741 118.788 2.34665C118.455 2.34665 118.1 2.34665 117.913 2.84505H123.372C123.372 3.73802 123.372 4.56869 123.372 5.37859C123.372 5.6901 123.455 5.83546 123.789 5.79393C124.435 5.7524 125.101 5.66933 125.747 5.71086C126.289 5.73163 126.581 5.46166 126.852 5.00479C126.247 4.73482 125.914 4.29872 125.914 3.63419C125.018 3.98722 124.851 4.29872 125.039 5.37859C124.747 5.25399 124.351 5.19169 124.33 5.08786C124.268 4.36102 124.31 3.63419 124.31 2.86581C125.081 2.86581 125.872 2.88658 126.643 2.86581C127.06 2.86581 127.164 2.99042 127.164 3.40575C127.143 4.17412 127.164 4.96326 127.164 5.7524C127.893 5.7524 128.519 5.7524 129.144 5.7524C130.831 5.7524 132.54 5.71086 134.228 5.66933C134.478 5.66933 134.894 5.60703 134.957 5.46166C135.103 5.08786 135.061 4.67252 135.124 4.17412C134.769 4.42332 134.561 4.71406 134.311 4.73482C134.103 4.73482 133.873 4.46486 133.644 4.29872C133.436 4.48562 133.207 4.67252 132.936 4.88019C132.811 4.65176 132.707 4.48562 132.623 4.31949C132.04 4.34026 131.873 4.69329 131.915 5.23323C131.686 5.25399 131.498 5.31629 131.311 5.29553C131.186 5.29553 130.998 5.15016 130.998 5.08786C130.977 4.38179 130.998 3.67572 130.998 2.88658C131.394 2.88658 131.811 2.92811 132.207 2.88658C132.457 2.84505 132.832 2.67891 132.873 2.49201C132.957 2.11821 132.582 1.99361 132.269 1.93131C132.061 1.88978 131.852 1.86901 131.644 1.86901C131.436 1.86901 131.206 1.86901 130.956 1.86901V0.0623003C129.623 0.124601 130.248 1.14217 130.123 1.78594H127.956V0.0830671H127.914ZM136.082 1.20447C135.957 1.41214 135.707 1.64058 135.707 1.84824C135.707 2.96965 135.707 4.13259 135.874 5.23323C135.936 5.66933 136.436 6.0639 136.707 6.4377H47.7778V102.92C47.7778 102.92 47.9236 102.962 48.007 102.962C49.8822 102.962 51.7783 103.003 53.6328 102.92C55.7372 102.816 57.425 101.819 58.7377 100.2C59.8212 98.8706 60.4879 97.3339 60.8838 95.6933C60.9463 95.4026 61.0505 95.2364 61.4047 95.361V103.419H60.8005C53.5911 103.419 46.3817 103.419 39.1932 103.419C38.9848 103.419 38.589 103.626 38.5681 103.211C38.5681 102.775 38.964 102.982 39.1724 102.982C39.8183 102.962 40.4851 102.982 41.1935 102.982V0H145V6.35463C144.854 5.9393 144.729 5.58626 144.604 5.25399C144 5.25399 143.417 5.33706 142.854 5.25399C141.708 5.06709 141.187 4.50639 141.041 3.38498C140.937 2.61661 140.937 1.82748 140.916 1.05911C140.916 0.872204 140.916 0.685304 140.916 0.498403C140.854 0.477636 140.791 0.456869 140.729 0.436102C140.583 0.685304 140.333 0.934505 140.333 1.16294C140.333 2.22204 140.333 3.28115 140.458 4.31949C140.562 5.15016 141.291 5.71086 142.146 5.7524C142.521 5.77316 142.896 5.7524 143.271 5.73163C143.646 5.6901 144 5.58626 144.375 5.52396C144.688 6.95687 144.062 7.99521 142.687 8.36901C141.27 8.76358 139.812 8.65974 138.312 8.68051V6.6246C138.812 6.52077 139.312 6.39617 139.833 6.29233C139.833 6.27157 139.833 6.2508 139.833 6.23003C139.083 6.16773 138.353 6.08466 137.603 6.02236C137.603 5.96006 137.603 5.877 137.603 5.8147C138.27 5.79393 138.937 5.71086 139.603 5.7524C140.145 5.77316 140.395 5.50319 140.666 5.08786C140.166 4.77636 139.708 4.40256 139.77 3.73802C138.978 3.88339 138.708 4.34026 138.833 5.27476C138.228 5.44089 138.124 5.37859 138.124 4.79712C138.124 3.44728 138.124 2.09744 138.124 0.747604V0.0623003C137.332 0.186901 137.207 0.332268 137.207 1.05911C137.207 2.36741 137.207 3.65495 137.228 4.96326V5.54473C137.228 5.54473 137.124 5.58626 137.061 5.60703C136.895 5.29553 136.624 5.02556 136.561 4.69329C136.416 3.96645 136.353 3.21885 136.27 2.47125C136.228 2.07668 136.27 1.68211 136.27 1.26677C136.207 1.24601 136.165 1.22524 136.103 1.20447" fill="#1D1B70"/>
<path d="M140.916 50.9824C141.041 50.8371 141.083 50.7955 141.083 50.7748C141.166 50.0272 141.27 49.2588 141.312 48.5112C141.333 48.0335 141.041 47.7843 140.541 47.7843C140.374 47.7843 140.208 47.7843 140.062 47.8259C139.437 47.9089 138.874 48.345 138.833 48.7188C138.812 49.1342 139.208 49.6326 139.874 49.7987C140.479 49.9649 140.875 50.2348 140.895 51.0032M138.27 46.2061C138.583 46.1022 138.833 46.0399 139.062 45.9361C139.687 45.6038 140.27 45.2093 140.895 44.9185C141.166 44.7939 141.541 44.7524 141.812 44.8355C142.458 45.0016 143.062 45.2716 143.75 45.5208V42.4058C142.916 42.8419 142.208 43.1741 141.52 43.5687C141.062 43.8387 140.624 43.901 140.124 43.6725C139.687 43.4856 139.249 43.2987 138.791 43.1741C138.312 43.0495 138.145 42.8003 138.27 42.385C140.083 42.655 141.875 42.6965 143.646 42.1773C144.146 42.0319 144.563 41.5543 144.958 41.2636V103.377H123.872V96.7109H138.228V53.9521C138.583 53.8275 138.853 53.7444 139.124 53.599C139.583 53.3706 140.062 53.1214 140.479 52.8099C141.083 52.3738 141.666 52.3738 142.312 52.6853C142.75 52.893 143.229 53.0383 143.812 53.246C143.812 52.7061 143.812 52.2284 143.812 51.7716C143.771 50.0272 143.708 48.2827 143.667 46.5591C143.646 45.6246 143.437 45.4585 142.541 45.7077C141.645 45.9569 140.749 46.1853 139.874 46.4345C140.645 46.8914 141.52 46.4345 142.396 46.5799C142.166 46.7045 141.937 46.8291 141.645 46.9744C141.958 47.2029 142.208 47.4105 142.562 47.6597C142.25 47.7843 142 47.8882 141.729 47.992C141.895 48.3866 142.104 48.6773 142.583 48.615C142.937 48.5735 143.083 48.6981 143.125 49.0926C143.229 50.3594 143.187 50.2556 142.187 50.9409C141.229 51.5847 140.354 51.5431 139.374 51.0863C138.332 50.6086 138.332 50.6709 138.332 49.5288V46.1645" fill="#1D1B70"/>
<path d="M113.912 78.3946C113.558 79.3706 113.204 80.3466 112.87 81.3227C110.328 88.5495 107.765 95.7556 105.223 102.982C105.14 103.19 105.14 103.46 104.786 103.46C104.39 103.46 104.39 103.19 104.307 102.962C101.452 94.9249 98.5974 86.9089 95.7429 78.893C95.6804 78.7476 95.6387 78.6022 95.5137 78.4776V103.003H98.1599C98.2849 103.003 98.4308 102.982 98.5558 103.003C98.66 103.045 98.7225 103.149 98.8058 103.232C98.7225 103.294 98.6391 103.439 98.5558 103.439C98.1807 103.46 97.8057 103.439 97.4306 103.439C95.6387 103.439 93.8468 103.439 92.034 103.439C91.8881 103.439 91.7423 103.294 91.5964 103.232C91.7423 103.149 91.8881 103.003 92.034 103.003C92.8466 102.982 93.6592 102.982 94.4927 103.003C94.8469 103.003 94.9511 102.879 94.9303 102.546C94.9094 102.152 94.9303 101.757 94.9303 101.383V78.3323H91.6798C91.5131 77.9377 91.6798 77.8339 92.0132 77.8339C94.8469 77.8339 97.6598 77.8339 100.494 77.8339C100.785 77.8339 100.931 77.9377 101.014 78.2077C102.64 82.901 104.286 87.5942 105.911 92.3083C106.307 93.4505 106.703 94.5926 107.161 95.8802C107.286 95.5687 107.349 95.3818 107.411 95.2156C109.411 89.5879 111.412 83.9808 113.37 78.353C113.516 77.9585 113.704 77.8339 114.1 77.8546C116.767 77.8546 119.434 77.8546 122.08 77.8546C122.372 77.8546 122.684 77.8131 122.518 78.3323H119.288V103.024C120.267 103.024 121.205 103.024 122.142 103.024C122.413 103.024 122.663 103.024 122.518 103.46C122.351 103.46 122.184 103.481 122.017 103.481H111.287C111.287 103.481 111.099 103.502 111.037 103.481C110.933 103.419 110.849 103.335 110.745 103.252C110.849 103.169 110.953 103.045 111.058 103.045C111.808 103.024 112.558 103.045 113.308 103.045H114.016V78.4776C114.016 78.4776 113.954 78.4776 113.912 78.4569" fill="#1D1B70"/>
<path d="M15.7314 103.564V95.5687C16.1064 95.4233 16.2314 95.5687 16.3148 95.9217C16.8149 98.1645 17.7733 100.158 19.5236 101.716C20.7946 102.858 22.2531 103.543 24.0034 103.481C25.0035 103.439 26.0037 103.481 26.9622 103.232C29.8376 102.567 31.692 99.5559 31.0044 96.8562C30.7127 95.6725 29.9001 94.9249 28.8999 94.3434C27.4414 93.492 25.7953 93.1597 24.2118 92.6613C22.5448 92.1629 20.8571 91.6645 19.3777 90.7093C17.4191 89.4217 16.3981 87.615 16.2314 85.2684C16.0022 81.8211 18.3359 79.2045 21.0446 78.0415C23.7325 76.8786 26.4204 77.0655 29.1083 78.0831C29.3792 78.1869 29.65 78.3115 29.9209 78.3946C30.4001 78.5607 30.8794 78.6438 31.4003 78.4776C31.6712 78.3738 32.0045 78.4361 32.3588 78.4153V84.5831C32.0254 84.7284 31.9004 84.5831 31.7962 84.2923C31.3378 83.1709 30.9627 81.9872 30.3793 80.9281C29.0875 78.4984 26.983 77.5224 24.2743 77.73C22.6074 77.8546 21.1071 78.3946 19.9611 79.6613C18.3359 81.468 18.5443 83.8355 20.5446 85.2061C21.4822 85.8498 22.5865 86.3067 23.6492 86.7013C25.6286 87.4489 27.6706 88.0303 29.65 88.778C31.0044 89.2764 32.1921 90.0655 33.088 91.2077C34.7758 93.3674 34.7758 95.7971 33.8381 98.2061C32.6505 101.28 30.1709 102.941 27.0455 103.688C24.7952 104.228 22.5657 103.917 20.3779 103.356C19.5236 103.128 18.6693 102.899 17.815 102.712C16.9815 102.526 16.7523 102.629 16.2523 103.315C16.1481 103.439 15.9189 103.46 15.6897 103.564" fill="#1D1B70"/>
<path d="M73.9064 83.1086C73.9064 83.1086 73.823 83.1086 73.7605 83.1086C72.4478 86.3275 71.1143 89.5256 69.7808 92.7652H78.0736C76.6568 89.5048 75.2816 86.3067 73.8855 83.1086M91.2213 102.982C91.4089 103.502 91.0547 103.439 90.7838 103.439C87.7 103.439 84.6162 103.439 81.5325 103.439H79.2196C79.0738 103.107 79.1363 102.962 79.4905 102.982C80.449 102.982 81.4074 102.982 82.4493 102.982C82.3659 102.775 82.3242 102.629 82.2826 102.505C81.0116 99.5974 79.7405 96.6901 78.5112 93.7827C78.3445 93.4089 78.157 93.2843 77.7403 93.2843C75.1774 93.2843 72.6145 93.2843 70.0516 93.2843C69.7599 93.2843 69.5724 93.3466 69.4474 93.6374C68.2181 96.6486 66.9679 99.639 65.7177 102.65C65.676 102.733 65.676 102.837 65.6343 102.982H68.1555C68.2806 102.982 68.4264 102.962 68.5514 102.982C68.6556 103.024 68.7181 103.128 68.8015 103.211C68.7181 103.294 68.6348 103.419 68.5514 103.419C68.1139 103.439 67.6763 103.419 67.2179 103.419C65.6135 103.419 64.0091 103.419 62.4255 103.419C62.1338 103.419 61.863 103.419 62.0505 102.962C62.8631 102.962 63.6966 102.962 64.53 102.962C64.9051 102.962 65.0718 102.837 65.2176 102.505C68.6764 94.0735 72.1561 85.6629 75.5941 77.2524C75.74 76.8994 75.9066 76.7332 76.3025 76.754C76.6568 76.754 76.8235 76.8786 76.9485 77.1901C80.574 85.5383 84.2203 93.8866 87.825 102.256C88.0542 102.796 88.3251 103.045 88.9294 102.982C89.7003 102.92 90.4504 102.982 91.2005 102.982" fill="#1D1B70"/>
<path d="M3.41727 78.2907H0.187644C0.104299 78 0.104299 77.8131 0.458517 77.8131C4.25073 77.8131 8.04294 77.8131 11.8352 77.8131C11.856 77.8131 11.8977 77.8339 11.9602 77.8546V78.27H8.7097C8.7097 78.4776 8.68887 78.6438 8.68887 78.8307C8.68887 86.7013 8.68887 94.5511 8.68887 102.422C8.68887 102.899 8.85556 103.003 9.27228 102.982C10.1682 102.962 11.0642 102.982 11.9393 102.982C12.1269 103.46 11.8352 103.439 11.5643 103.439C7.89709 103.439 4.25073 103.439 0.583535 103.439C0.458517 103.439 0.333499 103.439 0.208481 103.419C0.0834627 103.107 0.187644 102.982 0.500189 102.982C1.29197 102.982 2.10459 102.982 2.89637 102.982H3.43811V78.2907H3.41727Z" fill="#1D1B70"/>
<path d="M140.228 32.9569C140.228 32.5415 140.228 32.2508 140.228 31.96C140.228 30.2156 140.228 28.4712 140.27 26.7268C140.27 26.5192 140.374 26.3115 140.416 26.1246C140.499 26.1246 140.562 26.1246 140.645 26.1246C140.666 26.3738 140.708 26.6438 140.708 26.893C140.708 28.8658 140.708 30.8386 140.666 32.8115C140.666 33.1645 140.729 33.4137 141.166 33.4345C141.166 30.631 141.166 27.8275 141.166 25.0447C141.166 24.4217 141.249 23.7987 141.229 23.1965C141.187 21.2859 141.104 19.3754 141.041 17.4648C141.041 17.361 140.979 17.2364 140.937 17.1326C140.874 17.1326 140.833 17.1326 140.77 17.1326C140.749 17.6725 140.687 18.2124 140.687 18.7524C140.687 19.6038 140.437 20.3514 139.937 21.016C139.603 21.4521 139.187 21.6597 138.603 21.6597C138.603 21.4313 138.624 21.2236 138.603 21.016C138.562 20.746 138.437 20.4968 138.374 20.2268C138.332 20.1022 138.291 19.9569 138.291 19.8115C138.291 19.0431 138.291 18.2747 138.291 17.5064C138.291 16.9872 138.499 16.6965 138.999 16.6549C139.895 16.5719 140.791 16.5511 141.687 16.5096C142.125 16.5096 142.375 16.7795 142.541 17.1326C142.625 17.2987 142.666 17.4648 142.708 17.631C143.521 17.631 143.646 17.4648 143.354 16.738C143.166 16.2396 142.791 15.9489 142.25 15.9281C141.958 15.9281 141.666 15.9281 141.374 15.9281C141.374 15.4089 141.374 14.9728 141.374 14.5367C141.374 14.2668 141.27 14.1422 140.999 14.1422C140.145 14.1422 139.27 14.1422 138.395 14.2045C138.666 14.6198 138.957 14.9728 139.499 14.9728C139.708 14.9728 139.916 14.9936 140.145 14.9936C140.499 14.9936 140.603 15.1805 140.603 15.5335C140.603 15.8866 140.416 15.9073 140.145 15.9281C139.541 15.9489 138.957 15.9904 138.311 16.0319V14.0176C139.332 14.0176 140.312 14.0176 141.312 14.0176C142.041 14.0176 142.75 14.0591 143.458 14.1006C143.583 14.1006 143.771 14.2668 143.771 14.3706C143.812 16.4888 143.812 18.6278 143.854 20.7668C143.854 21.0575 143.75 21.1613 143.5 21.2444C142.708 21.4728 142.479 21.8259 142.479 22.6773C142.479 24.3802 142.479 26.1038 142.479 27.8067C142.479 28.2013 142.437 28.5335 141.916 28.6374C142.375 28.7827 142.812 28.9489 143.375 29.1358V28.5543C143.375 26.6645 143.396 24.7747 143.437 22.885C143.437 22.6773 143.541 22.4904 143.604 22.2827L143.812 22.3243C143.833 22.5942 143.875 22.8642 143.875 23.1342C143.875 25.107 143.875 27.0799 143.833 29.0527C143.833 29.4265 143.937 29.6549 144.271 29.6757C144.271 28.4505 144.271 27.246 144.271 26.0415C144.271 22.0543 144.312 18.0671 144.333 14.0799C144.333 13.3115 144.333 13.3115 143.541 13.2907C141.916 13.2907 140.312 13.2492 138.687 13.2284C138.541 13.2284 138.416 13.2077 138.27 13.0831C138.332 13.0623 138.416 13 138.499 13C139.853 12.9792 141.208 13 142.562 12.9169C143.541 12.8546 144.417 12.5639 144.979 11.5671V31.5862C144.833 31.1917 144.708 30.8179 144.562 30.4233C144.521 30.4233 144.479 30.4233 144.437 30.4441C144.437 30.7556 144.437 31.0671 144.437 31.3786C144.437 32.3961 143.958 33.2061 142.958 33.4345C141.875 33.6837 140.729 33.746 139.624 33.8706C139.187 33.9121 138.749 33.8706 138.27 33.8706C138.353 33.393 138.103 32.9361 138.499 32.5623C138.582 32.4792 138.541 32.2508 138.541 32.0846C138.541 29.5926 138.541 27.1006 138.562 24.6086V23.861C139.062 23.8818 139.541 23.9025 139.999 23.9648C140.166 23.9648 140.458 24.1517 140.458 24.214C140.437 24.484 140.374 24.9201 140.187 24.9824C139.52 25.2524 139.312 25.73 139.312 26.4153C139.312 28.139 139.312 29.8626 139.312 31.5862C139.312 31.9808 139.27 32.3338 138.707 32.2508C138.707 32.2923 138.707 32.3339 138.707 32.3754C139.166 32.5415 139.624 32.6869 140.208 32.8946" fill="#1D1B70"/>
<path d="M138.291 41.9904V36.861C139.166 36.7987 140.02 36.7572 140.874 36.6949C141.333 36.6741 141.791 36.6533 142.25 36.6118C142.604 36.591 142.812 36.7572 142.916 37.0687C143.187 37.8578 142.75 38.6885 141.937 38.8962C141.479 39 140.999 39.0208 140.541 39.0623C140.27 40.3706 140.812 41.222 142.208 41.762C140.916 41.8243 139.624 41.8866 138.291 41.9489" fill="#1D1B70"/>
<path d="M10.5223 70.2748V67.4713C10.3139 67.4713 10.1264 67.4297 9.95968 67.4089L12.335 67.3882C12.1683 67.4297 11.9808 67.4505 11.7933 67.4713V73.3482C11.9808 73.3482 12.1683 73.369 12.335 73.3898L9.98052 73.4105C9.98052 73.4105 9.98052 73.3898 9.98052 73.369C10.1472 73.369 10.3139 73.3482 10.5223 73.3275V70.3994H8.06358V73.3275C8.27194 73.3275 8.43863 73.3482 8.60532 73.369L6.22998 73.3898C6.39667 73.3482 6.56336 73.3275 6.77172 73.3275V67.4505C6.60503 67.4505 6.41751 67.4089 6.25082 67.4089C6.25082 67.4089 6.25082 67.409 6.25082 67.3882H8.58449C8.41779 67.4297 8.2511 67.4297 8.04274 67.4505V70.254H10.5223V70.2748Z" fill="#1D1B70"/>
<path d="M144.979 39.7476C144.813 39.4361 144.688 39.1661 144.542 38.8962C144.5 38.8962 144.458 38.8962 144.417 38.8962C144.458 39.7891 144.354 40.599 143.562 41.2428C144.042 40.1629 143.854 39.1038 143.833 38.0655C143.812 37.2348 143.687 36.4041 143.667 35.5942C143.667 35.1166 143.5 34.8882 142.979 34.9089C141.687 34.992 140.374 35.0335 139.062 35.1166C138.812 35.1166 138.582 35.1166 138.291 35.1166V34.4936C138.978 34.4936 139.687 34.4936 140.395 34.4936C141.166 34.4936 141.937 34.4521 142.687 34.3898C143.604 34.3067 144.437 33.9952 144.938 33.0607V39.7891L144.979 39.7476Z" fill="#1D1B70"/>
<path d="M138.291 12.5639V11.2556C138.291 11.2556 138.52 11.2141 138.562 11.131C139.166 10.2796 140.104 10.4042 140.958 10.3211C141.27 10.3003 141.583 10.3211 141.895 10.3211C142.708 10.3211 142.916 10.4872 143.187 11.2348C143.208 11.3179 143.25 11.3802 143.291 11.484C143.5 11.4633 143.667 11.4425 143.917 11.401C143.562 11.8786 143.083 12.0863 142.583 12.1486C141.187 12.3147 139.77 12.4393 138.291 12.5639Z" fill="#1D1B70"/>
<path d="M1.54189 73.3898C1.70858 73.3898 1.85443 73.3482 2.04196 73.3482V67.5335C1.04182 67.2843 0.541744 67.5958 0 68.8418V67.4089H5.29243V68.8834C4.93821 67.845 4.37563 67.2843 3.29214 67.492V73.3482C3.45883 73.3482 3.62552 73.3898 3.79221 73.3898L1.54189 73.4105C1.54189 73.4105 1.54189 73.4105 1.54189 73.3898Z" fill="#1D1B70"/>
<path d="M14.0229 67.4505C13.8146 67.4505 13.6479 67.4297 13.4812 67.4089C13.4812 67.4089 13.4812 67.3882 13.4812 67.3674H15.8565V67.4089C15.669 67.4089 15.5023 67.4297 15.294 67.4505V73.3275C15.4815 73.3275 15.669 73.369 15.8565 73.3898L13.4812 73.4105V73.369C13.6479 73.369 13.8146 73.3482 14.0229 73.3275V67.4297V67.4505Z" fill="#1D1B70"/>
<path d="M24.9619 73.3898C25.1286 73.3898 25.3161 73.369 25.5037 73.3482V67.4712C25.3161 67.4712 25.1286 67.4297 24.9619 67.4297L27.3373 67.4089C27.3373 67.4089 27.3373 67.4297 27.3373 67.4505C27.1706 67.4505 27.0039 67.4712 26.7955 67.492V73.3898C26.9622 73.3898 27.1289 73.4105 27.2956 73.4313L25.0036 73.4521C25.0036 73.4521 25.0036 73.4521 24.9828 73.4313" fill="#1D1B70"/>
<path d="M19.8362 73.4521C20.0237 73.3067 20.1487 73.2236 20.2321 73.1406C20.9614 72.476 20.8155 71.5415 19.9195 71.1885C19.3778 70.9601 18.7944 70.8355 18.2526 70.607C17.4192 70.2748 17.0025 69.5894 17.1483 68.8211C17.2733 68.0319 17.9193 67.4297 18.7736 67.3259C18.6069 67.4089 18.4193 67.4712 18.2735 67.5751C17.565 68.0319 17.5442 68.8626 18.3152 69.2572C18.9402 69.5687 19.6278 69.7556 20.2738 70.0048C20.8155 70.2125 21.2739 70.5447 21.4198 71.1885C21.6281 72.1853 21.0239 73.1406 19.857 73.4936" fill="#1D1B70"/>
<path d="M30.2126 67.2844C29.9626 67.4505 29.7125 67.5543 29.525 67.7412C29.0458 68.1773 29.1083 68.8003 29.6292 69.1534C29.9209 69.3403 30.2751 69.4649 30.6085 69.5895C30.9835 69.7348 31.3586 69.8387 31.7128 69.984C32.3587 70.2332 32.838 70.6693 32.9005 71.3962C32.9422 72.1023 32.6504 72.7045 32.067 73.1198C31.8795 73.2652 31.6503 73.3483 31.4003 73.4106C31.5044 73.3275 31.6086 73.2652 31.692 73.1614C32.4212 72.5176 32.2754 71.5623 31.3794 71.2093C30.8169 70.9808 30.1918 70.8355 29.6292 70.5863C28.6499 70.1709 28.2957 69.1118 28.7957 68.2396C29.1083 67.6997 29.6083 67.409 30.1918 67.3051" fill="#1D1B70"/>
<path d="M145 7.76678V10.1757C144.833 9.73963 144.708 9.38659 144.562 9.01279C144.354 9.71886 144.604 10.4872 144.083 11.131C144.021 10.9026 143.958 10.6949 143.896 10.508C143.729 10.0511 143.396 9.73963 142.916 9.76039C141.562 9.76039 140.228 9.8227 138.874 9.885C138.687 9.885 138.52 9.98883 138.312 10.0511V9.24123C138.478 9.24123 138.666 9.24123 138.832 9.24123C140.145 9.19969 141.479 9.19969 142.791 9.11662C143.708 9.05432 144.521 8.70129 145.021 7.76678" fill="#1D1B70"/>
<path d="M138.312 43.5272C138.916 43.7348 139.499 43.9633 140.103 44.1709C140.103 44.2332 140.103 44.2748 140.103 44.3371C139.52 44.6693 138.937 45.0016 138.312 45.3754V43.5479V43.5272Z" fill="#1D1B70"/>
<path d="M138.291 53.1006V51.2732C138.916 51.5016 139.499 51.7093 140.083 51.9169V52.0831C139.499 52.4153 138.937 52.7476 138.291 53.1006Z" fill="#1D1B70"/>
<path d="M142.729 35.8434C142.604 35.9265 142.5 36.0511 142.375 36.0511C141.104 36.1342 139.833 36.1965 138.562 36.2588C138.478 36.2588 138.374 36.1342 138.291 36.0926C138.353 36.0303 138.416 35.9265 138.478 35.9265C139.874 35.8227 141.27 35.7188 142.666 35.6358C142.687 35.6981 142.708 35.7811 142.75 35.8642" fill="#1D1B70"/>
<path d="M140.52 22.615C140.52 22.7396 140.52 22.9265 140.541 23.1549H138.603V22.5112C139.208 22.5319 139.833 22.5735 140.52 22.615Z" fill="#1D1B70"/>
<path d="M18.4401 73.4728C18.0443 73.4105 17.5442 73.3275 17.0024 73.2652V71.6869C17.2108 72.0815 17.3567 72.4553 17.5859 72.7668C17.8359 73.0783 18.1901 73.2859 18.4401 73.4936" fill="#1D1B70"/>
<path d="M30.0459 73.5144C29.5458 73.4313 29.0249 73.3483 28.4832 73.2652V71.7285C28.7957 72.5176 29.1916 73.2029 30.0459 73.5144Z" fill="#1D1B70"/>
<path d="M20.9198 67.5128V68.8003C20.5864 68.1981 20.378 67.5335 19.6279 67.2636C19.8363 67.3259 20.0238 67.3882 20.2322 67.4297C20.4405 67.4713 20.6489 67.4712 20.8989 67.5128" fill="#1D1B70"/>
<path d="M32.4004 67.5543V68.8003C32.067 68.1773 31.8378 67.5128 31.0669 67.2844C31.4836 67.3674 31.9212 67.4505 32.4004 67.5543Z" fill="#1D1B70"/>
<path d="M142.437 43.8802C142.708 43.9217 142.937 43.9633 143.145 44.0048C143.062 44.1294 143.02 44.3578 142.895 44.3786C142.625 44.4617 142.437 44.3786 142.437 43.8802Z" fill="#1D1B70"/>
<path d="M143.104 51.5639C143.187 52.0415 143.021 52.1661 142.729 52.1246C142.604 52.1038 142.52 51.9377 142.416 51.8339C142.645 51.7508 142.875 51.6677 143.104 51.5847" fill="#1D1B70"/>
<path d="M130.019 5.25399H129.31V4.15336C129.019 4.23642 128.789 4.29872 128.539 4.36102C128.581 4.67252 128.602 4.94249 128.643 5.23323C128.227 5.35783 128.039 5.27476 128.039 4.83866C128.039 4.21566 127.977 3.57189 127.935 2.90735H130.04V5.25399H130.019Z" fill="#1D1B70"/>
<path d="M126.852 2.34663H124.414L126.81 2.32587H126.831L126.852 2.34663Z" fill="#1D1B70"/>
</g>
<defs>
<clipPath id="clip0_7_2">
<rect width="145" height="104" fill="white"/>
</clipPath>
</defs>
</svg>
