<svg width="13" height="13" viewBox="0 0 13 13" fill="none" xmlns="http://www.w3.org/2000/svg">
<path d="M12.9104 5.39453C12.2975 1.81188 8.87707 -0.562527 5.30641 0.115671C1.05252 0.923392 -1.22826 5.64784 0.804074 9.44938C0.885444 9.60137 0.901815 9.73137 0.85463 9.89769C0.567667 10.9143 0.292259 11.9347 0 13C1.10067 12.7123 2.15656 12.4365 3.21196 12.1593C3.33715 12.1263 3.44644 12.1125 3.57644 12.178C4.81048 12.7974 6.11144 13.0134 7.48415 12.816C11.0235 12.306 13.5113 8.90788 12.9104 5.39453ZM7.03974 11.7664C5.95015 11.8711 4.92604 11.6623 3.96548 11.1442C3.83981 11.0763 3.72474 11.0562 3.58126 11.0844C2.91826 11.2154 2.25285 11.3339 1.56 11.462C1.68278 10.8201 1.79641 10.205 1.91967 9.59181C1.95867 9.39824 1.94374 9.23766 1.83974 9.05365C0.0158888 5.82324 2.015 1.71964 5.67907 1.15902C8.69941 0.696848 11.4997 2.80457 11.8618 5.81321C12.219 8.78074 10.0321 11.4792 7.03926 11.7664H7.03974Z" fill="white"/>
<path d="M3.14892 4.94282C3.16096 4.31911 3.37522 3.83925 3.80614 3.46025C4.22696 3.08984 4.80859 3.23753 5.00166 3.75944C5.13118 4.10977 5.25299 4.46297 5.39503 4.80804C5.46725 4.9844 5.44847 5.13113 5.33629 5.27451C5.29199 5.33091 5.24673 5.38683 5.19859 5.43988C4.77585 5.90731 4.77825 5.90539 5.11673 6.42922C5.58281 7.15043 6.21403 7.68381 6.9791 8.06569C7.25066 8.20094 7.35947 8.17944 7.5641 7.95385C7.70855 7.79469 7.85155 7.63363 7.98492 7.46539C8.08844 7.33444 8.20351 7.28378 8.35807 7.36407C8.81066 7.59874 9.26277 7.83484 9.71488 8.07047C9.86559 8.14885 9.86029 8.28411 9.84151 8.42271C9.74714 9.12146 9.3167 9.55973 8.59303 9.71172C8.15055 9.80492 7.74033 9.68925 7.32818 9.55352C5.51733 8.95753 4.3324 7.67425 3.45755 6.05499C3.26303 5.6951 3.1547 5.30367 3.14844 4.94282H3.14892Z" fill="white"/>
</svg>
